<?xml version="1.0" encoding="utf-8"?>
<svg version="1.1" id="svg1"
  xmlns:svg="http://www.w3.org/2000/svg"
  xmlns="http://www.w3.org/2000/svg" viewBox="0 0 1600 960" style="enable-background:new 0 0 1600 960;" xml:space="preserve">
  <style type="text/css">
	.st0{fill:#D12229;}
	.st1{fill:#FFFFFF;}
  </style>
  <g id="layer1">
    <path id="path32" class="st0" d="M414.5,7.6l-122.7,114c0,0-47.8,21.8-117.5,85.7C86.5,287.9,68,332.5,68,332.5l20-4.5l158.5-33.7
		l-29.4,89.4l-99.3-1.7l60.6,123.2L89.7,774.7c0,0-35.1,12.3-47.8,50.6c-16,48.3,17.3,87.9,61,98.7c52.1,12.8,95-22.7,106.1-57.9
		c11.2-35.2-8.5-63.6-8.5-63.6l113.3-281.6l216.4-97.3c-21.6,41.4-38.8,83.1-55.2,124.9c29.4-19.8,69.6-54.9,118.2-87
		c-19.4,60.5-44,122.8-44,122.8l-50.4-41.2l53.6,213.6C634.1,587,723.1,325.6,729.9,191.1c-85.1,63.9-139.5,129.5-179.3,196
		l-183.3-0.6l86.4-207.6c33.2-4.6,44.3-3.5,64,0.9l-70.3,72.6c0,0,342.3-74.4,379.9-82.6C649,62.6,527.4,66.2,459.3,65L414.5,7.6z
		 M1509.7,113.2L1400,249.6l-105.4,33.6c23.9-30.8,40.7-52.6,55.4-71.4c0,0-76.9,7.5-147.6,38.7c-38.3,16.9-76.7,44.9-93.8,71.5
		c15.6-40.1,32.2-82.8,32.2-82.8c10.9-1.5,31.5-16,34.3-32.3c4.7-27.9-21.2-53.4-52.4-57.1c-2.7-0.3-5.5-0.5-8.5-0.6
		c-20.6-0.5-45.6,6-55.5,31c-8.9,22.6,12.7,40.7,12.7,40.7l-19.5,49.6c-85.7,6.5-134.4,111-143.8,138.6
		c-16.6,48.6-19.3,129.8,44.6,165.6c22.1,12.4,56.3,15,90.7-1.5l-96.1,164.1c0,0,34.7-9.5,61.7-22.3
		c77.6-36.9,241.5-129.3,303.2-253.4c9.8-19.7,13.5-40.9,9.4-54.7c-5.2-17.6-36-40.4-80.5-54.6c0,0,26.7-34.4,44.5-57.3l80.8,33.2
		c0,0-4.4,118.7-224,416.5c20.3-3.1,62.7-29.3,70.3-35.9c188.4-161.4,249.8-375.8,249.8-375.8l130.8-44.2l-108-35.4
		C1504.8,178.3,1509.7,113.2,1509.7,113.2L1509.7,113.2z M973.1,127.6l-158,143.4c-13-41.9-25.7-82.3-25.7-82.3
		c-76.7,146.5-161.7,367-195.4,579.1c11.3-29.7,154.1-169.8,196.2-231.2l-72.6,29.9l50.7-130.5c0,0,44.4,113.7,65.5,168.6
		C906.3,465.3,967.2,158.5,973.1,127.6z M869.5,271.7c-11.5,45-20.7,70.6-27.3,87.7c-2.6-9.2-12.5-41.4-22.9-74.8L869.5,271.7z
		 M1099.9,344.5c-0.1,0.6-0.2,1.3-0.3,1.9c-0.8,17.7,4.9,30.4,13.4,39.9l-132.8,41.9c19.1-49.7,51.1-71.2,74-70.9
		c16.4,0.2,26.3,24.2,29.3,29.2C1084.2,384.7,1093.1,361.9,1099.9,344.5L1099.9,344.5z M1134.1,401.7c14.3,7,29.4,10,37.6,12.3
		c29.5,8.4,36.3,9.6,38.2,18.9c9,43.2-121.1,154.4-129.5,160.3l-5.3-40.9c4.9-4.3,9.8-9,14.5-14.3
		C1137.5,484,1138.2,430.1,1134.1,401.7z M977.6,435.4l72,24.7c-25.6,31.1-43.2,53.6-70.6,45C962.2,499.9,963.4,475.2,977.6,435.4z" />
    <path id="path31" class="st1" d="M422.4,17.8L301.7,128.3c0,0-48,21.6-117.5,85.7C125.8,267.9,81.7,329.4,81.7,329.4l176.8-35.7
		l-33.6,101.6l-89.1-0.6l54.6,111.6L98.8,782.1c0,0-36.6,14.2-47.8,50.3c-13.2,42.8,8.1,80.9,51.9,91.6
		c52.1,12.8,97.8-21.3,108.9-56.5c11.2-35.2-9.2-64.6-9.2-64.6l114-280.5l228.9-102.4c-26.5,47.7-43.9,90.2-55.7,118.4
		c29.4-19.8,67.5-44.4,116.1-76.5c-26.4,77-47.1,127.7-47.1,127.7l-51.1-39.1l49.7,195.8C639,576.4,722,342.8,728.9,208.2
		C650.8,264.6,597,333.6,559.1,396.5l-190.7-1l85.7-211.1c33.2-4.6,55.9-2.1,75.6,2.3l-61.5,61.3c0,0,313.2-68.1,350.8-76.3
		C658.4,83.7,533.8,73.4,465.6,72.2L422.4,17.8z M1507.3,135.7l-97.8,120.6l-121.7,40.3l87.3,37.9c0,0-13.6,140.2-213.9,404.3
		c13.3-5.5,31.2-11.5,53.2-27.4c188.4-161.4,250.5-375.4,250.5-375.4l111.5-41.4l-92.6-31.9C1503.4,187.4,1507.3,135.7,1507.3,135.7
		z M970,144.5L820.3,282.1c-12.8-38.9-24.9-75.1-24.9-75.1c-76.7,146.5-145.9,328.8-188.1,540.6c49-56,128.5-133.2,170.6-194.6
		l-60,25.9L774,432.3c0,0,42.5,110.1,63.6,165C910.1,457.8,946.8,268.2,970,144.5z M1120.7,155.9c-20.1,0.1-43.5,8.9-51.4,30.2
		c-9.6,26,11.3,42.1,11.3,42.1l-19.5,51c-85.7,6.5-133.3,109-142.1,133.7c-16.4,46.6-20,128.7,33.7,161.8
		c26.6,16.3,72.3,16.6,114.2-15.6L965.2,731.7c0,0,19.3-5.5,43.8-16.8c77.9-36.1,244.4-126.9,306.2-250.9
		c9.8-19.7,14.5-44.4,10.4-58.1c-5.2-17.6-40-39.4-84.5-53.6c0,0,71.5-92.3,100.4-129.3c0,0-52.1-1.4-142.2,40.5
		c-50,23.3-86.8,62.6-89.2,94.6c-1.1,15.6,6.2,27,16.5,35.4l-141.8,44.3l75.6,27.6c-14.7,26.2-42.5,55-69.9,46.4
		c-17.6-5.5-27.2-38.9-10.9-82.2c19-50.7,51.4-72.5,74.5-72.2c16.4,0.2,26.3,24.2,29.3,29.2c2.5-6.7,57.4-147.5,57.4-147.5
		c10.9-1.5,31.5-16,34.3-32.3c4.7-27.9-14.9-46.7-46.1-50.4C1126.4,156.1,1123.6,155.9,1120.7,155.9z M880,272.4
		c-11.5,45-23.8,83.3-30.5,100.3c-3-10.6-15.7-49.6-28.1-87L880,272.4z M1134.6,399.1c13,8,28.1,12.4,37.1,14.9
		c29.5,8.4,44.8,16,47,25.2c11.2,46.8-125.4,159-133.7,164.9l-3.8-57.2c2.9-2.8,5.7-5.7,8.5-8.9
		C1145.2,475.4,1139.1,418.9,1134.6,399.1z"/>
    <path id="path8" d="M421.7,31.5L268,182l24,43.6l-181,560.3c0,0-40.2,11.9-53.1,51.3c-10.4,31.8,7.2,72.1,51.6,80.1
		s83.1-18.8,94.2-54c11.2-35.2-10.9-57.3-10.9-57.3l116.8-290.3l244.2-109.8l-180.2,0.2l24.8,21.8l-59.3,17.4L447.7,176
		c36-8.4,80.8,0,101.2,5.5l-52.1,50.8c0,0,252.2-56.5,289.8-64.7c-172-88.8-261.3-82.1-325.3-84L421.7,31.5z M278.4,151.2
		c0,0-88.1,56.9-182.5,169.3l151.2-33.7l-19.6-28.8l49.6-27.3L253.4,183L278.4,151.2z M1125.4,164.8c-16.3-0.9-41.4,5.6-48.2,25.3
		c-7.7,22.6,13.9,34.7,13.9,34.7l-24,62.7C979.3,293,936.2,391.8,928,416.8c-17.1,51.8-16.8,119.9,29.5,151.2
		c22.2,15,78.6,16.4,126.2-35.9c61.2-67.3,42.4-128.2,42.4-128.2l-118.3,34.2l65,22.6c-13.6,33.7-52.8,70.5-86,59.7
		c-18.3-5.9-34.7-45.4-16.4-92.2c22.2-56.7,57.4-79.9,80.5-80c17.8-0.1,26.5,12.5,29.8,17.3c2.5-6.7,53.6-133.1,53.6-133.1
		c10.9-1.5,29-11.9,32-26.5c5.2-25.8-19.3-36.9-34.5-40.2C1129.9,165.2,1127.7,164.9,1125.4,164.8z M1494.3,165.1l-79.9,99.2
		l-106.2,32.3l77.5,33.7c0,0-24.5,155.6-194.6,385.3c188.9-138.4,267.2-388.1,267.2-388.1l87.7-34l-71.5-24.5
		C1491.8,191.2,1494.3,165.1,1494.3,165.1z M957,168.3L843.6,271l48.4-13.7c-10.1,48.5-34.4,133.4-41,150.4
		c-6.1-21.9-55.9-178.3-55.9-178.3c-89.3,167.2-145.2,360.2-173.4,488.8L755,572.4l-52.6,23.8L774,409.9c0,0,43.2,110.1,64.3,165
		C910.1,433.3,948.6,214.9,957,168.3z M1120.9,184.8c8.4-0.1,17.2,4.4,18.7,12c1.7,9-7.1,15.3-15.6,16.2c-7.2,0.8-20.2-2.2-21-13.2
		c-0.5-5.8,4.3-12.4,13.3-14.5C1117.8,185,1119.3,184.9,1120.9,184.8z M715,230.1c-108.1,75.2-176.2,220.2-205.1,283.7
		c28.7-21.2,59.8-46.1,110.4-70.1C592.1,534.9,562,605.2,562,605.2l-40.7-32.4l38,146.7C655.7,502.7,708.9,333,715,230.1z
		 M1321.8,233.5c0,0-53,6.3-117.8,37.6c-44,21.3-83,56.4-85.2,88.4c-2,28.6,40.7,41.8,59.3,47c29.5,8.4,47,17.9,49.7,31.1
		c11.5,56.7-143.5,178.5-151.8,184.4l-1.8-44l-88.5,138c0,0,245.1-105.8,319.8-253c9.9-19.6,16.4-41.7,11.8-54.8
		c-6.1-17.3-46.5-35.4-62.6-41.3c-26.3-9.7-53.5-16.6-55.8-27.9c-2.9-13.9,33.1-30.9,43.9-35.7l-1,30.9L1321.8,233.5z M645.6,361.1
		c-2,13.6-12.8,44.6-12.8,44.6l-22.9,0.2C620.6,389.8,632.4,373.2,645.6,361.1z M152.2,405.6l39.9,81.1l18.8-58.3l-15.6-7.4
		l13.9-15.1L152.2,405.6z M133.2,824.6c15.1,0.8,23.6,11.4,22.5,23.6c-1.2,14.4-13.7,26.2-26.2,26.2c-14.4,0-25.4-10.3-24.4-24.7
		C106.2,834.1,120.7,824,133.2,824.6z"/>
  </g>
</svg>
