<?xml version="1.0" encoding="UTF-8" standalone="no"?>
<svg viewBox="0 0 757 533.40002"
  xmlns="http://www.w3.org/2000/svg"
  xmlns:svg="http://www.w3.org/2000/svg">
  <path id="path1" d="M 378.5,0 C 378.5,0 141.8,0 82.8,15.9 50.2,24.7 24.6,50.5 15.9,83.3 0,142.7 0,266.7 0,266.7 c 0,0 0,124 15.8,183.4 8.7,32.8 34.4,58.6 66.9,67.4 59,15.9 295.8,15.9 295.8,15.9 0,0 236.7,0 295.7,-15.9 32.6,-8.8 58.2,-34.6 66.9,-67.4 C 757,390.7 757,266.7 757,266.7 c 0,0 0,-124 -15.8,-183.4 v 0 C 732.5,50.5 706.8,24.7 674.3,15.9 615.2,0 378.5,0 378.5,0 Z M 301.1,154.1 498.9,266.7 301.1,379.3 Z" />
</svg>
