<?xml version="1.0" encoding="UTF-8" standalone="no"?>
<svg viewBox="0 0 158.23155 148.45324" xml:space="preserve"
  xmlns="http://www.w3.org/2000/svg"
  xmlns:svg="http://www.w3.org/2000/svg">
  <path d="m 110.11578,148.45325
c -35.700002,-11.4 -49.000002,-41.3 -50.900002,-46.2 -5,1.1 -11.2,2.7 -18.7,4.9 0.1,3.3 3.3,8.9 3.8,9.5 -7.5,0.1 -13.9,-4.7 -15.9,-6.3 -11,1.6 -19.4000001,-3.1 -22.8000001,-13.399999 -6.19999996,-19 -5.59999996,-41.6 -5.59999996,-41.6 0,0 -0.6,-22.5 5.59999996,-41.6 3.9,-11.9999997 14.5000001,-16.3999997 28.3000001,-12.1999997 34.9,10.5999997 45.2,9.5999997 45.2,9.5999997 0,0 10.3,1 45.200002,-9.5999997 13.7,-4.2 24.3,0.2 28.3,12.1999997 6.2,19 5.6,41.6 5.6,41.6 0,0 0.6,22.5 -5.6,41.6 -3.6,10.999999 -12.9,15.599999 -25,12.999999 -0.3,3.3 0.6,7.8 0.8,8.4 -8.5,-2.8 -13.1,-11.7 -13.2,-11.9 -7.4,-2.1 -13.4,-3.5 -18.200002,-4.6 -1.8,28.2 13.100002,46.6 13.100002,46.6
z" />
  <path d="m 35.386477,32.530105
a 1.8244185,1.756512 0 0 0 -1.823611,1.757238
v 9.878448
a 1.9014495,1.8306758 0 0 0 1.901743,1.830958
h 87.494231
a 1.8244185,1.756512 0 0 0 1.82518,-1.755734
V 34.069193
a 1.5973798,1.5379239 0 0 0 -1.5986,-1.539088
z

m -0.03438,16.513226
a 1.8244185,1.756512 0 0 0 -1.82361,1.757239
v 9.878448
a 1.9014495,1.8306758 0 0 0 1.901743,1.830958
h 87.49423
a 1.8244185,1.756512 0 0 0 1.82518,-1.757238
V 50.580915
a 1.5973798,1.5379239 0 0 0 -1.5986,-1.537584
z

m 0,16.750936
a 1.8244185,1.756512 0 0 0 -1.82361,1.757238
v 9.878447
a 1.9014495,1.8306758 0 0 0 1.901743,1.830959
h 87.49423
a 1.8244185,1.756512 0 0 0 1.82518,-1.755734
V 67.333355
a 1.5973798,1.5379239 0 0 0 -1.5986,-1.539088
z" fill="white"/>
</svg>
