<?xml version="1.0" encoding="UTF-8" standalone="no"?>
<svg viewBox="0 0 297.00024 100.552801" xml:space="preserve"
  xmlns="http://www.w3.org/2000/svg">
  <path d="M 13.861328,6.9678203e-5
C 13.106363,-0.00343032 12.288001,0.12490968 11.419922,0.38874168 2.6019007,3.0687687 0,2.8203827 0,2.8203827
V 76.962961
c 1.9314881,1.799938 4.4983852,3.519504 7.8574219,4.589843 0,0 -3.7622303,-4.650496 -3.3691407,-11.787109 1.2203988,0.25727 2.7388675,0.627761 4.6035157,1.150391 0.0298,0.0577 1.1992281,2.305022 3.3476561,3.013671 -0.0517,-0.147859 -0.276102,-1.296873 -0.195312,-2.132812 3.067967,0.648449 5.40817,-0.513975 6.318359,-3.294922 0.854159,2.609788 2.965605,3.795914 5.757812,3.396484 0.48934,0.41378 2.104851,1.640156 4.011719,1.603516 -0.11702,-0.14641 -0.941341,-1.561615 -0.957031,-2.396484 1.897308,-0.54483 3.467539,-0.945573 4.738281,-1.226563 0.488044,1.220939 3.830238,8.794281 12.867188,11.673828 0,0 -3.762228,-4.650496 -3.369141,-11.787109 1.220406,0.25727 2.738872,0.627761 4.603516,1.150391 0.02978,0.0577 1.199235,2.305022 3.347656,3.013671 -0.05172,-0.147859 -0.274152,-1.296873 -0.193359,-2.132812 3.067967,0.648449 5.406211,-0.513975 6.316406,-3.294922 0.854159,2.609788 2.965598,3.795914 5.757812,3.396484 0.489343,0.41378 2.104849,1.640156 4.011719,1.603516 -0.11702,-0.14641 -0.941342,-1.561615 -0.957031,-2.396484 1.897312,-0.54483 3.467539,-0.945573 4.738281,-1.226563 0.488047,1.220939 3.83219,8.794281 12.869141,11.673828 0,0 -3.76223,-4.650496 -3.369141,-11.787109 1.220409,0.25727 2.736914,0.627761 4.601563,1.150391 0.0298,0.0577 1.201191,2.305022 3.349609,3.013671 -0.0517,-0.147859 -0.276092,-1.296873 -0.195313,-2.132812 3.067957,0.648449 5.406218,-0.513975 6.316407,-3.294922 0.854159,2.609788 2.967548,3.795914 5.759765,3.396484 0.48934,0.41378 2.102901,1.640156 4.009771,1.603516 -0.11702,-0.14641 -0.93939,-1.561615 -0.95508,-2.396484 1.8973,-0.54483 3.46753,-0.945573 4.73828,-1.226563 0.48802,1.220939 3.83023,8.794281 12.86719,11.673828 0,0 -3.76222,-4.650496 -3.36914,-11.787109 1.22039,0.25727 2.73888,0.627761 4.60351,1.150391 0.0298,0.0577 1.19925,2.305022 3.34766,3.013671 -0.0517,-0.147859 -0.27611,-1.296873 -0.19532,-2.132812 3.06797,0.648449 5.40816,-0.513975 6.31836,-3.294922 0.85415,2.609788 2.9656,3.795914 5.75782,3.396484 0.48933,0.41378 2.10486,1.640156 4.01171,1.603516 -0.11702,-0.14641 -0.94134,-1.561615 -0.95703,-2.396484 1.89732,-0.54483 3.46757,-0.945573 4.73828,-1.226563 0.48805,1.220939 3.83219,8.794281 12.86915,11.673828 0,0 -3.76223,-4.650496 -3.36915,-11.787109 1.2204,0.25727 2.73692,0.627761 4.60157,1.150391 0.0298,0.0577 1.20119,2.305022 3.34961,3.013671 -0.0517,-0.147859 -0.2761,-1.296873 -0.19532,-2.132812 3.06797,0.648449 5.40622,-0.513975 6.31641,-3.294922 0.002,-0.005 0.004,-0.01063 0.006,-0.01563 0.002,0.005 0.002,0.01063 0.004,0.01563 0.85416,2.609788 2.96756,3.795914 5.75976,3.396484 0.48935,0.41378 2.10289,1.640156 4.00977,1.603516 -0.11702,-0.14641 -0.93939,-1.561615 -0.95508,-2.396484 1.89731,-0.54483 3.46752,-0.945573 4.73828,-1.226563 0.48804,1.220939 3.83025,8.794281 12.86719,11.673828 0,0 -3.76223,-4.650496 -3.36914,-11.787109 1.2204,0.25727 2.73886,0.627761 4.60351,1.150391 0.0298,0.0577 1.19924,2.305022 3.34766,3.013671 -0.0517,-0.147859 -0.27609,-1.296873 -0.19531,-2.132812 3.06796,0.648449 5.40817,-0.513975 6.31836,-3.294922 0.85417,2.609788 2.96561,3.795914 5.75781,3.396484 0.48934,0.41378 2.10486,1.640156 4.01172,1.603516 -0.11701,-0.14641 -0.94134,-1.561615 -0.95703,-2.396484 1.89729,-0.54483 3.46754,-0.945573 4.73828,-1.226563 0.48803,1.220939 3.83219,8.794281 12.86914,11.673828 0,0 -3.76222,-4.650496 -3.36914,-11.787109 1.22041,0.25727 2.73691,0.627761 4.60156,1.150391 0.0298,0.0577 1.2012,2.305022 3.34961,3.013671 -0.0517,-0.147859 -0.2761,-1.296873 -0.19531,-2.132812 3.06795,0.648449 5.4062,-0.513975 6.3164,-3.294922 0.85415,2.609788 2.96757,3.795914 5.75977,3.396484 0.48934,0.41378 2.10293,1.640156 4.00976,1.603516 -0.11701,-0.14641 -0.93938,-1.561615 -0.95507,-2.396484 1.89729,-0.54483 3.46559,-0.945573 4.73632,-1.226563 0.48803,1.220939 3.83219,8.794281 12.86914,11.673828 0,0 -3.76223,-4.650496 -3.36914,-11.787109 1.2204,0.25727 2.73887,0.627761 4.60352,1.150391 0.0298,0.0577 1.19924,2.305022 3.34766,3.013671 -0.0518,-0.147859 -0.2761,-1.296873 -0.19532,-2.132812 3.06796,0.648449 5.40817,-0.513975 6.31836,-3.294922 0.85416,2.609788 2.96561,3.795914 5.75782,3.396484 0.48933,0.41378 2.10486,1.640156 4.01171,1.603516 -0.11702,-0.14641 -0.94134,-1.561615 -0.95703,-2.396484 1.8973,-0.54483 3.46757,-0.945573 4.73828,-1.226563 0.30665,0.767109 1.74475,4.041478 5.00977,7.083985
V 2.8203827
c 0,0 -2.60189,0.248386 -11.41992,-2.43164102 -3.4723,-1.055329 -6.1503,0.06009 -7.14063,3.08593702 -0.99033,-3.02581702 -3.67027,-4.14126602 -7.14258,-3.08593702 -8.81802,2.68002702 -11.41992,2.43164102 -11.41992,2.43164102 0,0 -2.6019,0.248386 -11.41992,-2.43164102 -3.47232,-1.055329 -6.15226,0.06009 -7.14258,3.08593702 -0.99034,-3.02581702 -3.66831,-4.14126602 -7.14062,-3.08593702 -8.81804,2.68002702 -11.41992,2.43164102 -11.41992,2.43164102 0,0 -2.6019,0.248386 -11.41993,-2.43164102 -3.47232,-1.055329 -6.15224,0.06009 -7.14257,3.08593702 -0.99033,-3.02581702 -3.67027,-4.14126602 -7.14258,-3.08593702 -8.81804,2.68002702 -11.41992,2.43164102 -11.41992,2.43164102 0,0 -2.60189,0.248386 -11.41993,-2.43164102 -3.47231,-1.055329 -6.15224,0.06009 -7.14257,3.08593702 -0.002,0.005 -0.002,0.01062 -0.004,0.01563 -0.002,-0.005 -0.004,-0.01062 -0.006,-0.01563 -0.99033,-3.02581702 -3.66832,-4.14126602 -7.14062,-3.08593702 -8.81803,2.68002702 -11.41993,2.43164102 -11.41993,2.43164102 0,0 -2.60191,0.248386 -11.41992,-2.43164102 -3.47231,-1.055329 -6.15226,0.06009 -7.14258,3.08593702 -0.99034,-3.02581702 -3.67026,-4.14126602 -7.14257,-3.08593702 -8.81803,2.68002702 -11.41993,2.43164102 -11.41993,2.43164102 0,0 -2.60188,0.248386 -11.419918,-2.43164102 -3.472317,-1.055329 -6.152249,0.06009 -7.142578,3.08593702
C 91.818265,0.44886168 89.140295,-0.66658732 85.667969,0.38874168 76.849948,3.0687687 74.248047,2.8203827 74.248047,2.8203827
c 0,0 -2.601902,0.248386 -11.419922,-2.43164102 -3.472319,-1.055329 -6.152251,0.06009 -7.142578,3.08593702
C 54.695212,0.44886168 52.015285,-0.66658732 48.542969,0.38874168 39.724948,3.0687687 37.123047,2.8203827 37.123047,2.8203827
c 0,0 -2.601898,0.248386 -11.419922,-2.43164102 -3.472317,-1.055329 -6.150296,0.06009 -7.140625,3.08593702
C 17.819753,1.2053167 16.126222,0.01052368 13.861328,6.9678203e-5
Z" />
</svg>
