<?xml version="1.0" encoding="UTF-8" standalone="no"?>

<svg viewBox="0 0 129.6 84.7" style="enable-background:new 0 0 129.6 84.7;" xml:space="preserve"
  xmlns="http://www.w3.org/2000/svg"
  xmlns:svg="http://www.w3.org/2000/svg">
  <style type="text/css" id="style1">	.st0{fill:#FFFFFF;}</style>
  <path class="st0" d="M6.7,0c-1.1,0-2,0.2-2.9,0.7C3,1.2,2.3,1.8,1.9,2.6   C1.5,3.5,1.2,4.5,1.2,5.6V10c0,1,0.2,2,0.7,2.8c0.5,0.8,1.1,1.4,1.9,1.8c0.8,0.4,1.8,0.6,2.9,0.6c1.1,0,2-0.2,2.9-0.7   c0.8-0.5,1.5-1.1,1.9-2c0.5-0.8,0.7-1.8,0.7-2.9V6.7H7v2.7h2.3v0.2c0,0.5-0.1,1-0.3,1.4C8.7,11.5,8.4,11.8,8,12   c-0.4,0.2-0.8,0.3-1.3,0.3c-0.5,0-1-0.1-1.4-0.3c-0.4-0.2-0.7-0.5-0.9-0.8c-0.2-0.4-0.3-0.8-0.3-1.2V5.6c0-0.5,0.1-1,0.3-1.4   C4.7,3.8,5,3.5,5.3,3.2C5.7,3,6.2,2.9,6.7,2.9c0.3,0,0.7,0.1,1,0.2C8,3.2,8.2,3.4,8.5,3.6C8.7,3.8,8.9,4.1,9,4.4h3   c-0.2-0.9-0.5-1.7-1-2.3c-0.5-0.7-1.1-1.2-1.9-1.5C8.4,0.2,7.5,0,6.7,0z M63.5,0c-1.2,0-2.2,0.2-3,0.5c-0.8,0.4-1.4,0.9-1.9,1.6   S58,3.6,58,4.6v0c0,1.1,0.2,1.9,0.7,2.5c0.5,0.6,1,1,1.7,1.2c0.7,0.2,1.5,0.4,2.5,0.6l0.2,0c0,0,0,0,0.1,0c0,0,0,0,0.1,0   c0.6,0.1,1,0.2,1.4,0.3c0.4,0.1,0.7,0.3,0.9,0.5c0.2,0.2,0.3,0.5,0.3,0.9v0c0,0.6-0.3,1-0.8,1.3c-0.5,0.3-1.2,0.5-2.1,0.5   c-0.8,0-1.6-0.1-2.3-0.4c-0.8-0.3-1.4-0.6-2-1.1l-1.3,2.3c0.5,0.4,1,0.7,1.6,1c0.6,0.3,1.2,0.5,1.9,0.6c0.7,0.1,1.4,0.2,2.1,0.2   c1.2,0,2.2-0.2,3.1-0.5c0.9-0.4,1.5-0.9,1.9-1.5c0.4-0.7,0.7-1.5,0.7-2.4v0c0-1-0.2-1.8-0.6-2.4c-0.4-0.6-1-1-1.6-1.3   c-0.6-0.3-1.4-0.5-2.4-0.7l-0.1,0c0,0-0.1,0-0.1,0c0,0-0.1,0-0.1,0c0,0-0.1,0-0.1,0c-0.7-0.1-1.2-0.3-1.5-0.4   c-0.4-0.1-0.7-0.3-0.9-0.5c-0.2-0.3-0.4-0.6-0.4-1v0c0-0.5,0.2-0.9,0.7-1.2c0.5-0.3,1.1-0.4,2-0.4c0.6,0,1.2,0.1,1.8,0.3   c0.6,0.2,1.2,0.5,1.8,0.9l1.2-2.4c-0.5-0.3-1-0.6-1.5-0.8s-1.1-0.4-1.6-0.5C64.6,0.1,64,0,63.5,0z M19.3,0.2l-5.7,14.9h3l0.8-2.4   h5.5l0.8,2.4h3L21.1,0.2H19.3z M28.9,0.2v14.9h2.6V4.7l2.7,8.7h2.5l2.7-8.9v10.6h2.6V0.2h-3.7l-2.8,10l-2.8-10H28.9z M45.4,0.2   v14.9h2.8h7.2v-2.7h-7.2V9h6V6.3h-6V2.9h7.2V0.2h-7.2H45.4z M75.2,0.2v14.9h2.6V4.7l2.7,8.7H83l2.7-8.9v10.6h2.6V0.2h-3.7l-2.8,10   l-2.8-10H75.2z M96,0.2l-5.7,14.9h3l0.8-2.4h5.5l0.8,2.4h3L97.8,0.2H96z M105.6,0.2v14.9h2.8h2.1c1.3,0,2.4-0.2,3.2-0.7   c0.9-0.4,1.5-1.1,2-1.9c0.4-0.8,0.7-1.7,0.7-2.8V5.5c0-1.1-0.2-2.1-0.7-2.9c-0.5-0.8-1.1-1.4-2-1.8c-0.9-0.4-1.9-0.6-3.2-0.6h-2.1   H105.6z M119.6,0.2v14.9h2.8h7.2v-2.7h-7.2V9h6V6.3h-6V2.9h7.2V0.2h-7.2H119.6z M108.4,2.9h2.2c0.9,0,1.6,0.2,2.1,0.7   c0.5,0.4,0.8,1.1,0.8,1.9v4.4c0,0.8-0.3,1.4-0.8,1.9c-0.5,0.4-1.2,0.7-2.1,0.7h-2.2V2.9z M20.2,4.9L22,10h-3.6L20.2,4.9z M96.9,4.9   l1.8,5.1h-3.6L96.9,4.9z M0,17.4l3.4,14.9h2.6l2.8-10.4l2.6,10.4h2.6l3.4-14.9h-2.9l-1.9,9.9l-2.9-9.9H7.7l-2.9,9.9l-1.9-9.9H0z    M19.3,17.4v14.9h2.9V17.4H19.3z M23.5,17.4v2.7h4.1v12.2h2.8V20.1h4.1v-2.7H23.5z M35.9,17.4v14.9h2.8v-6H44v6h2.8V17.4H44v6.2   h-5.4v-6.2H35.9z M0.6,33.8v16.5h58.9V33.8H0.6z M16,34.5h5.4c0.8,0,1.5,0.2,2.2,0.6c0.6,0.4,1.1,0.9,1.4,1.6   c0.3,0.7,0.5,1.4,0.5,2.3c0,0.9-0.2,1.7-0.5,2.3c-0.3,0.7-0.8,1.2-1.5,1.6c-0.3,0.2-0.6,0.3-1,0.4l3.6,6.1h-3.4l-3.4-6h-1.7v6h-2.8   V34.5L16,34.5L16,34.5z M1.5,34.6h2.8h3.2c0.9,0,1.7,0.2,2.5,0.6c0.7,0.4,1.3,0.9,1.7,1.6c0.4,0.7,0.6,1.5,0.6,2.4   c0,0.9-0.2,1.7-0.6,2.4c-0.4,0.7-0.9,1.2-1.7,1.6c-0.7,0.4-1.5,0.6-2.5,0.6H4.3v5.8H1.5V34.6z M28.5,34.6h2.9v14.9h-2.9V34.6z    M34.8,34.6h2.8h2.1c1.2,0,2.3,0.2,3.2,0.6c0.9,0.4,1.6,1,2,1.8c0.5,0.8,0.7,1.8,0.7,2.9v4.2c0,1.1-0.2,2-0.7,2.8   c-0.4,0.8-1.1,1.4-2,1.9c-0.9,0.4-2,0.7-3.2,0.7h-2.1h-2.8V34.6z M48.8,34.6h2.8h7.2v2.7h-7.2v3.4h6v2.7h-6v3.3h7.2v2.7h-7.2h-2.8   V34.6z M17.6,37.3v3.5h3.5c0.3,0,0.5-0.1,0.8-0.2c0.2-0.1,0.4-0.3,0.5-0.6c0.1-0.3,0.2-0.6,0.2-0.9c0-0.3-0.1-0.7-0.2-0.9   c-0.1-0.3-0.3-0.5-0.5-0.6c-0.2-0.1-0.5-0.2-0.8-0.2H17.6z M4.3,37.3V41h3.2c0.3,0,0.6-0.1,0.9-0.2c0.3-0.2,0.5-0.4,0.6-0.7   c0.1-0.3,0.2-0.6,0.2-1c0-0.4-0.1-0.7-0.2-1c-0.1-0.3-0.3-0.5-0.6-0.7c-0.3-0.2-0.6-0.2-0.9-0.2H4.3z M37.6,37.3v9.5h2.2   c0.9,0,1.6-0.2,2.1-0.7c0.5-0.4,0.8-1.1,0.8-1.9v-4.4c0-0.8-0.3-1.4-0.8-1.9c-0.5-0.4-1.2-0.7-2.1-0.7H37.6z M5.8,51.8L0.1,66.7h3   L4,64.3h5.5l0.8,2.4h3L7.6,51.8H5.8z M15.4,51.8v14.9H18V55.9l5.3,10.7h3.5V51.8h-2.7v10.9l-5.3-10.9H15.4z M30.3,51.8v14.9h2.8   h2.1c1.3,0,2.4-0.2,3.2-0.7c0.9-0.4,1.5-1.1,2-1.9c0.4-0.8,0.7-1.7,0.7-2.8v-4.2c0-1.1-0.2-2.1-0.7-2.9c-0.5-0.8-1.1-1.4-2-1.8   c-0.9-0.4-1.9-0.6-3.2-0.6h-2.1H30.3z M33.1,54.5h2.2c0.9,0,1.6,0.2,2.1,0.7c0.5,0.4,0.8,1.1,0.8,1.9v4.4c0,0.8-0.3,1.4-0.8,1.9   c-0.5,0.4-1.2,0.7-2.1,0.7h-2.2V54.5z M6.7,56.5l1.8,5.1H4.9L6.7,56.5z M0.6,68.1v14.4L5.8,69h1.8l5.7,14.9h-3l-0.8-2.4H4l-0.8,2.4   H0.6v0.8h89.9V68.1H0.6z M12.9,69h10.9h10.3v2.7h-4.1v12.2h-2.8V71.7h-3.5h-4.1v12.2H17V71.7h-4.1V69z M35.4,69h2.9v14.9h-2.9V69z    M39.6,69h10.9v2.7h-4.1v12.2h-2.8V71.7h-4.1V69z M51.8,69h2.8v9.6c0,0.9,0.2,1.5,0.7,2c0.5,0.5,1.1,0.7,1.9,0.7   c0.8,0,1.5-0.2,1.9-0.7c0.5-0.5,0.7-1.1,0.7-2V69h2.8v9.5c0,1.2-0.2,2.2-0.6,3c-0.4,0.8-1,1.5-1.9,1.9c-0.8,0.4-1.8,0.6-2.9,0.6   s-2.1-0.2-2.9-0.6c-0.8-0.4-1.4-1.1-1.9-1.9c-0.4-0.8-0.6-1.8-0.6-3V69z M65.9,69h2.8h2.1c1.2,0,2.3,0.2,3.2,0.6   c0.9,0.4,1.6,1,2,1.8c0.5,0.8,0.7,1.8,0.7,2.9v4.2c0,1.1-0.2,2-0.7,2.8c-0.4,0.8-1.1,1.4-2,1.9c-0.9,0.4-2,0.7-3.2,0.7h-2.1h-2.8   V69z M80,69h2.8h7.2v2.7h-7.2v3.4h6v2.7h-6v3.3h7.2v2.7h-7.2H80V69z M68.8,71.7v9.5h2.2c0.9,0,1.6-0.2,2.1-0.7   c0.5-0.4,0.8-1.1,0.8-1.9v-4.4c0-0.8-0.3-1.4-0.8-1.9c-0.5-0.4-1.2-0.7-2.1-0.7H68.8z M6.7,73.7l-1.8,5.1h3.6L6.7,73.7z" />
</svg>
