<?xml version="1.0" encoding="UTF-8" standalone="no"?>
<!-- Created with Inkscape (http://www.inkscape.org/) -->

<svg viewBox="0 0 24.594364 22.558296"
  xmlns="http://www.w3.org/2000/svg"
  xmlns:svg="http://www.w3.org/2000/svg">
  <path d="m 12.297434,-1e-5
a 3.6226401,2.5557992 0 0 1 3.60598,2.37815
c 1.00464,-0.0868 2.06596,-0.21572 2.97606,-0.41755 0.89743,-0.19899 1.51317,-0.29731 1.96422,-0.30075 0.75175,-0.006 1.04512,0.25162 1.41748,0.74517 0.59579,0.7897 2.33319,3.65221 2.33319,8.86768 0,5.21546 -1.7374,8.07746 -2.33319,8.86716 -0.59578,0.78969 -0.98856,0.97557 -3.3817,0.44493 -0.90979,-0.20176 -1.97068,-0.33072 -2.97503,-0.41755
a 3.6226401,2.5557992 0 0 1 -3.60701,2.39107 3.6226401,2.5557992 0 0 1 -3.60754,-2.39107
c -1.00419,0.0868 -2.064855,0.21583 -2.974485,0.41755 -2.39315,0.53064 -2.78644,0.34476 -3.38222,-0.44493 -0.59579,-0.7897 -2.33319,-3.6517 -2.33319,-8.86716 0,-5.21547 1.7374,-8.07798 2.33319,-8.86768 0.59578,-0.78969 0.98907,-0.97506 3.38222,-0.44442 0.90793,0.20135 1.966265,0.3302 2.968805,0.41703
A 3.6226401,2.5557992 0 0 1 12.297434,-1e-5
Z" fill="white"/>
</svg>
