<?xml version="1.0" encoding="UTF-8" standalone="no"?>

<svg id="svg1" viewBox="0 0 1311.5463 347.65294" xml:space="preserve" version="1.1"
  xmlns="http://www.w3.org/2000/svg"
  xmlns:svg="http://www.w3.org/2000/svg">
  <path d="m 39.164071,-3.201353e-6 c 0,0 -6.111506,7.639615801353 -10.771479,14.822269201353 -4.661334,7.18132 -13.065427,24.984367 -15.357427,29.568359 -2.292,4.583992 -2.825693,6.645987 -3.5136662,7.333984 -0.688,0.688 -4.0493199,1.453144 -5.8066532,2.369141 -1.7573067,0.917331 -1.4524933,2.826981 -1.7578,3.820312 l 1.68164,6.417969 c 1.6025999,0.259706 2.9216266,0.60934 4.0488265,0.763672 0,0 12.2244259,2.06282 13.3710929,2.521484 h 4.365227 c 2.674666,-3.819992 9.920239,-10.085112 11.601573,-11.537109 3.048533,-1.705351 6.11344,-3.148376 7.412106,-5.578125 -0.152,-0.610664 -2.597653,-2.978516 -2.597653,-2.978516 0,0 16.350426,-2.597328 18.259759,-3.361328 1.910667,-0.763997 2.445307,-2.597656 2.445307,-2.597656 0,0 -3.591133,-2.446295 -5.119133,-3.515625 -1.528,-1.069331 -8.939293,-8.022956 -11.00196,-9.626953 -2.06264,-1.605331 -5.57812,-4.048828 -5.57812,-4.048828 0,0 2.140974,-2.75032 2.292974,-3.208984 C 43.292018,20.705396 43.291805,4.35513 43.062551,2.9804634 42.833218,1.6044901 39.164111,-3.201353e-6 39.164111,-3.201353e-6 Z M 289.0586,40.306641 c -2.03733,-0.101333 -14.97547,-1.120437 -19.35547,4.074219 0,0 -3.76908,0.509317 -17.01172,5.80664 -13.24397,5.297322 -23.83873,10.593938 -33.10937,13.447266 -9.26931,2.851994 -18.33612,4.583994 -24.55079,6.722656 -6.21464,2.139997 -11.81793,3.159926 -13.44726,3.058593 -1.63067,-0.102667 -3.46288,0.814453 -3.46288,0.814453 0,0 -3.15888,-1.121306 -5.90822,-3.667968 -2.75066,-2.546661 -4.4822,-4.279942 -6.51953,-3.974609 -2.03731,0.306664 -3.36283,3.769531 -10.79882,3.769531 -3.97331,0 -6.21484,-2.03711 -6.21484,-2.03711 l -1.83399,-7.945311 c 0,0 -8.55703,-1.018642 -17.31836,-3.66797 0,0 -13.65124,17.114991 -15.89257,22.820313 0,0 1.12217,8.048816 3.46484,17.216797 0,0 -2.05286,5.311959 -5.60352,11.613279 -3.78131,6.70932 -9.2161,14.68182 -14.134763,23.3418 -3.808,6.70532 -7.509347,13.19271 -10.416014,18.2207 0,0 0.612174,2.44531 -1.730466,13.75196 -2.344,11.30797 -4.687507,20.67968 -4.687507,20.67968 0,0 -4.68664,2.14193 -13.751946,3.66992 0,0 5.8062,-3.97506 8.6582,-5.40039 l 5.60352,-25.57031 c 0,0 -3.972894,-7.43554 -4.074227,-8.6582 0,0 3.259773,-4.48198 3.259773,-5.19531 l -6.621106,-4.07618 -3.87304,2.85352 -7.435547,17.31836 -29.238279,9.37109 -2.85156,2.03711 -1.324226,3.16016 c -0.305334,0.81466 -2.242214,6.2118 -1.935547,7.23047 0.305333,1.01866 9.779506,6.62414 10.187506,7.74414 0.138667,0.38266 2.78952,7.61973 7.130854,17.01172 2.274666,4.91865 5.076773,10.62481 8.023439,15.85546 2.774667,4.92666 5.69096,10.71063 7.765627,15.11329 3.898666,8.27464 5.864173,13.77749 6.21484,14.16015 l 3.361333,5.09375 c 0,0 2.241547,-0.91624 4.685546,-1.01758 2.445334,-0.10266 7.132814,-0.61132 9.27148,-1.83398 2.14,-1.22133 11.30664,-10.90039 11.30664,-10.90039 0,0 3.56532,6.41732 7.94532,6.72266 0,0 1.42749,-3.66731 4.68749,-6.41797 3.26,-2.75066 6.92732,-4.98957 7.33399,-5.60157 0.408,-0.61066 1.12196,-4.07573 2.14063,-4.78906 0,0 -0.91731,-13.34613 -0.30664,-15.07812 0.612,-1.73067 7.64061,-15.58461 8.86328,-18.94727 1.22133,-3.36133 2.33086,-6.9526 6.21484,-11.30859 3.36133,-3.76799 5.80664,-7.74131 7.0293,-9.16797 1.22264,-1.42667 6.82398,-8.96353 11.30664,-13.24219 4.48264,-4.27866 5.09375,-5.50195 5.09375,-5.50195 0,0 4.68644,-10.38994 5.39844,-20.16992 0.71333,-9.77998 -0.1016,-23.125 -0.1016,-23.125 0,0 4.89017,-7.84417 5.6035,-10.79883 l 11.61328,-3.1582 4.38087,-9.779302 5.70508,2.75 -6.31641,16.503902 -12.12304,3.36133 -2.85158,4.89063 c 0,0 4.48332,2.85089 7.64063,3.46289 0,0 1.52779,40.34194 -1.32421,67.33789 0,0 -18.33788,22.61522 -19.56055,25.06055 -1.22266,2.44532 -5.69574,8.16353 -8.15038,9.88085 -1.01867,0.71334 -1.93555,4.89085 -1.93555,6.21485 l 0.20507,7.0293 c 0.204,3.87065 1.22266,11.61328 1.22266,11.61328 l 29.54296,11.00195 25.67188,-25.26367 c 0,0 2.38755,-0.45513 5.29688,-0.20313 3.21331,0.27734 7.14753,1.29226 11.10351,1.9336 7.53866,1.22266 17.21528,2.24262 20.16992,2.75195 2.95466,0.50933 12.63302,3.56401 18.54102,4.27734 5.90931,0.71334 15.99394,1.52863 18.03124,2.14063 2.03734,0.61067 13.3459,3.66689 24.14453,3.46289 0,0 0.51022,-15.58745 -0.20312,-19.66211 -0.71333,-4.07466 -0.51104,-16.91016 0.0996,-20.27148 0,0 -10.38931,-3.15842 -15.89062,-5.70508 -5.50133,-2.54666 -10.08485,-5.19487 -19.04883,-7.13086 -8.96533,-1.936 -22.71876,-5.19531 -22.71876,-5.19531 0,0 15.7908,-13.54837 20.27344,-17.92969 4.48267,-4.37999 7.74219,-8.76018 13.54883,-12.9375 5.80667,-4.17599 8.86287,-7.03017 9.26953,-8.04883 0,0 -12.2757,-12.68162 -15.17968,-16.34961 0,0 -6.26594,-10.69692 -15.89258,-17.26758 0,0 -28.21768,14.16059 -30.15235,14.66992 0,0 1.83312,-6.01061 2.03712,-9.4746 0,0 4.48264,-1.52908 7.94531,-3.56641 3.464,-2.03733 9.06705,-5.194 12.12305,-6.11133 3.05597,-0.916 11.30857,-3.97332 12.53124,-4.58398 1.22267,-0.61067 7.53779,-2.85241 9.37109,-4.17774 1.83334,-1.324 5.60442,-4.48131 8.76172,-5.80664 3.15734,-1.323996 27.91407,-12.73242 27.91407,-12.73242 0,0 0.40622,-5.706617 2.85156,-6.113281 l 2.64844,11.615234 c 0,0 -3.3615,3.970461 -25.4668,13.037107 0,0 2.44228,3.36264 3.46095,3.66797 1.01866,0.30533 2.2422,-1e-5 5.6035,2.44531 3.36267,2.444 16.19967,13.34616 17.625,18.13282 l 3.66797,2.03906 c 0,0 -0.77241,8.39441 -2.95508,19.15039 -1.86533,9.19331 -4.89708,19.87895 -7.84374,31.07226 -1.59467,6.05599 -2.55238,11.74686 -4.48438,17.21485 l 8.76172,4.17578 c 0.71091,0.60905 1.49024,0.98432 2.34375,1.32617 0,0 0.66552,4.23245 0.1016,6.92578 -0.91733,4.38133 -0.40648,7.64147 -0.50781,8.9668 -0.10267,1.324 0.81338,21.39193 -0.61328,29.64258 l 3.56641,0.4082 3.76952,-3.86914 c 0,0 2.76889,-3.46573 5.21289,-5.40039 1.13734,-0.9 3.63794,-6.59083 12.3086,-15.38281 9.97198,-10.11065 20.98632,-19.76367 20.98632,-19.76367 l 39.93164,18.43945 0.20508,1.83398 c 0,0 1.32463,0.50889 2.14063,0.71289 0.81467,0.204 3.4622,-0.20422 9.88087,2.03711 6.4173,2.24133 23.73651,10.28865 27.50585,10.69532 3.76933,0.40799 13.54797,-4.17598 14.66797,-9.16797 -0.50933,-1.528 -0.62484,-3.62973 -0.50781,-5.5 0,-1.01867 -0.30663,-5.60373 0.60937,-8.15039 0,0 -8.14843,-2.64732 -12.73243,-5.19532 -4.58397,-2.54666 -13.44809,-4.07531 -15.99609,-5.19531 -2.54664,-1.12133 -18.84517,-8.55657 -46.45312,-36.36719 0,0 21.49591,-7.23349 24.44922,-8.66015 2.95466,-1.42533 9.57613,-4.78841 14.4668,-6.31641 4.88933,-1.528 16.19726,-4.88867 16.19726,-4.88867 0,0 8.35372,-9.67834 14.56836,-15.48633 6.21333,-5.80532 10.28839,-8.2502 12.12305,-9.88086 1.83331,-1.62933 3.26064,-4.99087 7.64062,-9.26953 4.38,-4.27866 7.23242,-6.21484 7.23242,-6.21484 0,0 -1.22306,-3.86956 -4.17773,-10.18555 0,0 7.53863,4.98935 12.83593,9.77734 0,0 0.40938,3.36303 -18.33593,18.23633 0,0 1.52712,19.45763 1.42579,41.15625 -0.10267,21.69862 -0.7129,32.69922 -0.7129,32.69922 0,0 -0.71418,4.86282 -2.24218,9.88281 -1.40667,4.62266 -3.56136,9.19725 -5.19336,14.36524 -1.16,3.67066 -1.58908,7.39712 -2.65039,9.67578 -4.17733,8.96398 3.05641,11.61348 5.09375,12.02148 2.03733,0.40667 5.0933,1.73175 5.80664,2.34375 0.71333,0.61067 2.95486,3.6671 3.76953,3.8711 0.81467,0.204 4.99261,-0.10287 5.50195,-0.40821 0.50933,-0.30666 11.20462,-14.77062 13.14062,-15.89062 l 9.3711,-11.7168 c 0,0 5.80794,-8.65884 6.11328,-9.57617 0.30666,-0.916 0.20289,-1.83334 1.32422,-2.13867 1.12,-0.30534 2.95312,-0.30469 2.95312,-0.30469 0,0 0.90416,-4.1291 2.29883,-10.48242 1.62933,-7.42265 2.4078,-18.7774 4.73047,-29.24805 2.17866,-9.81731 6.3917,-22.33609 8.45704,-29.4414 1.98533,-6.83066 1.86244,-8.43421 2.0371,-8.65821 0,0 21.18966,-8.15082 21.59766,-8.66015 0.40666,-0.50934 0.62464,-3.87443 3.05664,-4.48243 2.444,-0.612 40.74609,-16.5039 40.74609,-16.5039 l 0.40821,-4.2793 c 0,0 1.732,-1.42534 2.13867,-2.13867 0.408,-0.713332 1.63085,-2.037111 1.63085,-2.037111 0,0 1.73244,6.316181 0.50977,16.298831 l -28.83008,12.42968 c 0,0 2.54756,50.52907 -2.64843,55.01172 l -4.38086,14.97461 c 0,0 -6.31509,8.65843 -9.67773,13.34375 -3.36133,4.68666 -4.37956,8.0484 -6.51953,10.90039 -2.13867,2.85333 -3.97199,5.0955 -4.58399,5.91016 l -3.05664,3.46289 c 0,0 -1.73113,3.87045 -2.3418,4.17578 l 3.36133,15.99414 c 0,0 1.01779,1.12153 2.64843,1.63086 1.62933,0.50933 24.75477,0.81378 26.9961,1.42578 2.24131,0.61067 4.44676,1.23719 5.39843,1.32422 l 3.36133,0.30664 c 0.67572,0.17835 1.09247,0.40648 1.63086,0.50781 0.61066,0.10267 1.93601,-0.61065 2.13868,-1.22265 0.204,-0.61067 4.68728,-5.50133 6.72461,-6.72266 2.03731,-1.22266 14.87304,-13.34375 14.87304,-13.34375 0,0 5.60179,-0.40908 6.92579,-0.20508 1.32533,0.204 4.58636,0.8151 10.90233,0.50977 6.316,-0.30533 9.47197,-1.01953 20.47461,-1.01953 11.00131,0 17.31856,0.20531 17.72656,0.30664 0.408,0.10133 1.63087,0.81445 1.63087,0.81445 0,0 11.10352,-12.63322 15.68749,-20.17187 0,0 -35.6558,-25.87477 -39.73046,-26.9961 0,0 12.32661,-9.06662 17.41992,-11.61328 5.09333,-2.54666 10.08593,-4.88843 11.3086,-6.00976 1.22266,-1.12 3.76953,-3.66602 3.76953,-3.66602 0,0 1.32333,-12.42793 2.75,-14.05859 0,0 6.4e-4,-1.77338 -0.30469,-2.44531 0,0 -6.77571,-6.67348 -10.59571,-11.10547 -5.22264,-6.05732 -7.74261,-13.24284 -11.61328,-16.29883 0,0 -22.92143,1.12151 -32.80273,4.07617 0,0 34.33072,-18.64367 37.38672,-19.76367 3.056,-1.12133 0.91732,-1.83422 7.94532,-5.29688 7.0293,-3.463989 37.79448,-18.846549 38.50781,-18.949215 0.71333,-0.101334 0.40778,-4.787773 -0.1016,-5.398437 -0.50933,-0.610667 -1.8342,-4.482874 0.20313,-5.908204 0,0 6.41904,7.944627 7.84571,14.363281 0,0 -2.24132,2.547742 -2.44532,3.566406 0,0 -1.32355,0.202686 -9.88085,4.277344 -8.55734,4.074659 -19.15235,9.779295 -19.15235,9.779295 0,0 1.32377,2.95443 2.03711,3.25977 0.71333,0.30666 2.0371,2.13933 2.0371,2.75 0,0.612 1.73178,2.64997 3.25978,3.05664 1.528,0.408 5.90796,1.73221 12.83593,2.54687 0,0 -1.32423,13.75365 -5.9082,31.98828 -4.584,18.23597 -11.10483,39.93533 -11.41016,41.97266 -0.30533,2.03733 -0.30469,4.17578 -0.30469,4.17578 0,0 -11.92012,1.63022 -12.32812,4.07422 0,0 16.40254,11.00216 16.81054,11.41016 0.40667,0.40666 0.71091,1.63019 2.24024,1.01953 1.528,-0.612 2.24023,0.10156 2.24023,0.10156 0,0 -0.81356,4.88971 -19.35351,29.23633 0,0 4.78668,2.85153 6.41602,3.1582 1.63066,0.30533 3.46376,1.12974 4.90038,1.76172 0.30534,0.204 1.92579,0.58159 1.92579,1.29492 0,0 6.72436,-7.02906 11.20703,-8.15039 0,0 3.02824,-0.34336 7.74023,-0.30469 9.26664,0.0773 25.82114,1.37668 42.48242,1.52735 25.36394,0.23066 50.77913,-0.30642 51.3418,-0.20508 0,0 35.24849,-35.24674 37.89649,-34.94141 l -0.61133,-44.7207 c 0,0 -1.52714,-1.01778 -2.3418,-1.42578 -0.81467,-0.408 -1.32423,-0.3062 -2.54687,-1.01954 -1.22267,-0.71333 -3.46507,-3.66688 -4.78907,-4.68554 -1.324,-1.01867 -6.11041,-1.12173 -14.56641,-9.98438 0,0 29.33832,-18.64278 31.07032,-19.05078 0,0 2.74974,-5.49978 8.45508,-7.53711 0,0 0.71485,-6.01195 -0.50782,-9.47461 l 2.44336,-2.54687 8.15039,12.02148 c 0,0 -1.22244,1.12001 -2.03711,2.13867 -0.816,1.01867 -1.32597,3.46507 -3.05664,4.78907 -1.732,1.32399 -5.09397,1.93356 -6.41797,3.46289 0,0 2.03644,3.15734 6.00977,5.5 0,0 0.61152,4.38258 -3.56445,18.94922 -4.17733,14.56797 -9.98501,44.61868 -10.90235,47.77734 -0.916,3.15733 -2.13868,7.03016 -2.13868,8.04883 0,1.01866 6.6e-4,1.42554 -0.30468,2.54687 -0.30533,1.12 -6.01107,14.77061 -6.31641,19.5586 -0.30533,4.78799 -0.40821,7.13128 -1.32421,8.86328 -0.91733,1.73066 -2.44551,7.43684 -1.63087,10.1875 l 4.48439,1.73242 c 3.66664,0.61067 13.3442,1.11914 14.76953,1.11914 1.42664,0 12.02257,-0.71246 15.58788,1.01953 0,0 1.32356,-5.19572 4.07423,-9.37304 2.75066,-4.176 15.38172,-23.93988 16.40038,-25.67188 1.01867,-1.73199 8.5586,-12.52906 8.5586,-13.65039 0,0 3.25888,2.34288 4.68555,2.54687 1.42667,0.204 7.33545,0.40775 20.88476,6.92774 13.54797,6.51999 41.35892,20.57745 55.82422,29.13476 0,0 0.81636,-1.52777 11.51367,-2.0371 0,0 1.73028,-5.50197 3.46094,-7.64063 0,0 -4.58354,-2.34177 -5.29688,-2.64844 -0.71199,-0.30533 -5.50195,-0.50976 -5.50195,-0.50976 0,0 -2.64757,-1.73175 -4.99023,-2.34375 l 0.71289,-1.83203 c 0,0 2.03905,1.52842 3.26172,1.73242 1.22133,0.204 10.49066,-3.36439 12.22265,-3.26172 1.732,0.10133 7.53862,6.92817 8.25196,7.4375 l 1.73242,2.75 c 0.61066,0.612 2.8522,1.83397 7.13086,7.64062 0,0 12.22436,-4.48241 20.06836,-5.70507 0,0 -1.0193,-13.75261 -0.6113,-20.16993 0,0 1.3251,-2.24132 2.3437,-4.58398 1.0187,-2.344 1.7322,-4.58397 3.7695,-7.0293 2.0374,-2.44533 8.2507,-12.3268 9.168,-14.46679 0.916,-2.13867 2.3425,-4.99151 4.1758,-6.82618 1.8333,-1.83332 8.7613,-13.85321 15.2812,-46.14648 l 8.4551,16.70703 c 0,0 7.1482,3.1582 8.2696,3.1582 1.12,0 15.3832,-14.97504 15.8925,-15.48437 0.5094,-0.50933 1.4245,-1.93556 6.0098,-0.71289 4.584,1.22266 5.3984,0 5.3984,0 0,0 3.0558,-8.14931 3.2598,-9.16797 0.204,-1.01866 0.1016,-8.15234 0.1016,-8.15234 l -2.2559,-7.43555 c -0.612,-2.14 -2.7521,-7.94683 -4.3828,-10.79883 -1.6293,-2.85199 -5.2973,-8.3522 -6.7227,-12.630858 -1.4266,-4.278659 -3.6713,-11.818581 -4.1757,-13.142578 0,0 -4.4844,-4.990896 -5.4004,-5.601563 -0.9174,-0.611997 -8.6587,-4.382169 -12.5293,-8.048828 l -10.086,0.40625 c 0,0 -1.8341,-0.406446 -3.4648,-2.03711 0,0 -0.7036,-1.528008 -1.6289,-5.5 -1.8347,-3.769325 -3.0547,-8.250426 -3.0547,-9.982421 0,-1.731997 -5.5024,1.426672 -7.2344,2.138672 -1.7319,0.713334 -13.9566,6.213987 -17.1152,7.333984 l -3.1562,4.992191 c 0,0 4e-4,4.786863 -0.7129,7.130858 -0.7133,2.342664 -2.8526,11.614157 -2.1406,14.771485 0,0 -19.05038,28.014308 -23.12504,35.654298 -4.07599,7.64132 -6.21355,11.20746 -8.04687,12.93945 0,0 -13.44793,41.76561 -14.0586,44.21094 -0.61066,2.44533 -3.5664,8.45703 -3.5664,8.45703 0,0 -2.44423,1.62868 -3.4629,1.52734 0,0 -1.19861,1.22112 -10.39062,8.75977 0,0 1.32268,8.25259 0.91602,9.16992 -0.408,0.916 -4.48243,5.90841 -4.48243,6.31641 0,0 -0.9158,-0.61242 -1.73046,-2.95508 -0.81467,-2.34266 -2.44532,-15.99414 -2.44532,-15.99414 0,0 -2.80464,-0.93619 -6.41797,-2.85352 -4.31199,-2.28666 -9.94114,-5.82086 -15.59179,-8.74218 -7.83465,-4.04933 -14.96939,-6.43554 -15.88672,-7.65821 0,0 11.81619,-2.75109 15.99219,-3.87109 4.17732,-1.12 23.12694,-5.39887 27.71093,-5.9082 4.584,-0.51067 9.57422,-1.22266 9.57422,-1.22266 l 4.58399,-4.48242 c 0.30666,-0.99909 0.27534,-0.75382 1.01953,-1.83399 0,0 7.33504,-13.65168 11.20703,-19.76367 3.87066,-6.11199 11.61262,-19.25258 14.36328,-24.7539 2.75066,-5.50133 8.76172,-15.48438 8.76172,-15.48438 l -6.11328,-12.734374 c -3.25999,-1.323997 -29.03342,-11.103313 -34.94141,-14.056641 -5.90932,-2.954661 -12.53125,-8.966797 -12.53125,-8.966797 0,0 -1.7307,1.01932 -1.83203,1.833984 0,0 -11.51194,-0.609807 -16.19727,-1.11914 -4.68665,-0.509333 -9.57677,-2.141287 -18.74609,-2.751953 -9.16798,-0.612 -23.32813,-0.814454 -23.32813,-0.814454 0,0 -35.75713,13.854165 -47.67577,20.271485 0,0 -10.59459,-3.870638 -18.64259,-10.390625 -8.04797,-6.519986 -30.25626,-18.131726 -33.21093,-19.15039 -2.95467,-1.018667 -7.53907,-4.789063 -7.53907,-4.789063 l -0.50976,0.814452 c 0,0 -6.01062,0.6133 -13.75196,1.529298 -7.74264,0.91733 -17.31856,3.05512 -23.22656,3.564453 -5.9093,0.509333 -9.57616,0.917961 -10.79882,2.140625 0,0 -3.66732,-0.305969 -9.7793,-0.917969 -6.112,-0.610664 -13.95484,-2.8522 -24.24414,-3.769531 -10.28931,-0.916 -22.41275,-2.3433 -31.27539,-4.279297 0,0 -4.07552,2.650841 -8.04882,4.076172 -3.97334,1.426664 -24.95726,10.696164 -32.0879,14.160156 -7.13066,3.462661 -24.6543,13.242187 -24.6543,13.242187 0,0 -2.85175,-3.15558 -4.48242,-3.767577 l -67.33789,4.175781 -6.72265,0.509766 c 0,0 -13.24391,1.527794 -17.72657,2.953125 0,0 -12.32574,-5.601573 -17.62304,-7.740235 -5.29734,-2.139997 -11.30791,-2.141502 -16.50391,-5.298827 -5.19467,-3.158662 -10.08399,-4.787111 -10.08399,-4.787111 0,0 -1.73308,0.815108 -2.34374,2.648439 0,0 -1.01802,-1.324219 -1.52735,-1.324219 h -0.50976 c 0,0 -12.22548,4.992189 -16.60548,8.353514 0,0 -16.40034,-4.788401 -32.59765,-7.539062 -16.19731,-2.750661 -25.57055,-3.462448 -30.25585,-4.175781 -4.68667,-0.713331 -10.69818,-2.750848 -12.63282,-2.853515 -1.936,-0.101333 -18.43945,6.519531 -18.43945,6.519531 0,0 2.75047,-9.981328 -7.43751,-12.222656 -10.18664,-2.241331 -18.53925,-2.548388 -23.53125,-3.261719 -4.99197,-0.713333 -6.92709,-1.934901 -11.8164,-2.240234 -4.88933,-0.305334 -10.39236,-1.83288 -12.42969,-1.935547 z m 962.5879,1.833984 c -0.4587,0.028 -1.116,1.300027 -11.6133,6.416016 -1.712,0.834664 -5.6608,2.2082 -9.2715,3.76953 -3.2786,1.417331 -6.2179,3.036123 -8.0859,3.689454 -5.768,2.015997 -12.5353,5.344266 -18.8086,8.433594 -11.132,5.482656 -21.8106,11.569273 -30.1973,15.697265 -8.5573,4.213325 -14.3463,7.045716 -14.625,7.123047 -1.1213,0.305333 -30.1538,1.221553 -30.8672,1.32422 -0.7133,0.101333 -4.585,5.703762 -4.789,6.621093 -0.2027,0.91733 2.4453,4.787296 5.8066,11.001956 3.3627,6.21332 4.2786,12.93858 8.252,16.5039 3.9733,3.56533 17.8281,6.11133 17.8281,6.11133 0,0 0.4073,3.46481 -0.3047,16.30078 -0.7133,12.83598 -1.937,23.02233 -2.6504,27.70899 -0.7133,4.68532 -1.3242,18.74414 -1.3242,18.74414 -1.936,1.63066 -3.9726,4.58441 -5.1953,6.3164 -1.2227,1.732 -5.6641,7.94532 -5.6641,7.94532 0,0 -5.7454,4.89038 -6.0508,6.01172 -0.3053,1.11999 -4.7871,7.33398 -4.7871,7.33398 -2.344,-1.42666 -4.9922,-2.24024 -4.9922,-2.24024 l 0.3047,-8.86328 c 1.732,-1.73199 3.1587,-4.38172 3.668,-5.40039 0.5093,-1.01866 2.5469,-2.64884 3.7695,-3.46484 1.2227,-0.81466 3.9727,-3.25781 3.9727,-3.25781 0.1027,-4.68666 1.6295,-8.35395 1.3242,-8.86328 -0.3067,-0.50934 -5.918,-3.0612 -6.834,-2.75586 l -7.834,12.1289 c -6.4186,-0.81599 -15.5878,-4.99219 -15.5878,-4.99219 -1.9324,2.64059 -2.4225,4.66268 -4.6856,6.92579 -1.2227,1.22266 -5.3984,7.4375 -5.3984,7.4375 0,0 -3.1598,0.30556 -4.7891,0.10156 -1.6307,-0.204 -1.4256,-1.62976 -2.2402,-1.73243 -0.8147,-0.10133 -4.9922,6.62436 -4.9922,6.92969 0,0.30533 3.0547,3.15625 3.0547,3.15625 -6.6213,8.45599 -16.1973,19.86524 -16.1973,19.86524 10.5027,-0.35734 24.1637,-0.47867 25.5703,0 1.2973,0.44133 1.5274,3.76953 1.5274,3.76953 5.7613,-0.30534 11.0371,-0.30469 11.0371,-0.30469 l 10.0254,-10.07617 c 7.7426,0.81466 12.7597,7.01953 12.7597,7.01953 28.116,-0.71333 31.0714,-3.56751 35.5528,-3.46484 4.4826,0.10133 4.1777,2.85351 4.1777,2.85351 5.1653,0.12933 9.9841,0.29991 14.4707,0.50391 5.9747,0.27066 12.3749,1.27476 17.2109,1.63476 9.1013,0.676 18.0468,1.50934 23.3282,2.13867 2.9413,0.35067 5.2544,1.15707 6.9277,1.42774 3.8507,0.62133 4.6855,0.50977 4.6855,0.50977 0.204,-1.42667 1.834,-2.54688 1.834,-2.54688 1.5294,1.528 4.9922,3.46289 4.9922,3.46289 -0.7133,0.50933 -1.5293,4.38086 -1.5293,4.38086 4.788,2.95466 4.8911,4.88995 5.0938,5.50195 0.204,0.61067 3.873,1.62891 3.873,1.62891 2.852,-1.12 7.4356,-1.62891 7.4356,-1.62891 2.6946,-2.37199 4.4268,-4.83617 6.8242,-7.4375 2.3973,-2.59999 5.4597,-5.33863 7.4824,-7.89062 1.412,-1.78 2.4257,-3.81242 3.623,-5.45508 1.828,-2.50533 5.6224,-6.08665 6.9278,-7.94531 2.3386,-3.33466 1.5273,-4.07422 1.5273,-4.07422 -1.1853,-1.74 -6.1457,-4.74015 -13.3457,-7.74414 -4.3466,-1.81333 -9.7199,-3.35578 -14.9746,-5.39844 -4.8626,-1.888 -9.902,-4.30098 -14.75,-6.07031 -7.2,-2.628 -13.8887,-3.90187 -18.9687,-5.64453 -5.3653,-1.84 -7.7188,-3.77344 -7.8575,-3.77344 -0.612,0 -5.4882,1.22656 -5.4882,1.22656 l -4.0743,-3.46484 c 2.2414,-2.03733 2.9523,-4.88996 3.4629,-5.50196 0.5094,-0.61066 32.905,-17.92902 35.961,-20.67968 3.056,-2.74933 3.7695,-6.21289 3.7695,-6.21289 l -11.3086,-24.04297 -14.4648,-5.70312 c -2.0374,2.24133 -15.5877,9.16773 -17.625,9.0664 -2.0374,-0.10266 -9.3711,-4.48242 -9.3711,-4.48242 15.8919,-13.14131 78.0332,-47.777344 78.0332,-47.777344 l 20.7832,-12.53125 c 0,0 9.1673,-4.073547 9.4726,-4.685547 0.3054,-0.610664 5.0938,-17.318359 5.0938,-17.318359 0,0 -2.0387,-2.546 -2.4453,-2.75 -0.408,-0.204 -19.865,0.304917 -26.4864,0.40625 -6.6226,0.102667 -12.9388,-1.11937 -19.0507,-1.220704 -6.112,-0.102666 -11.918,-1.732421 -11.918,-1.732421 z M 43.128911,58.996094 c -1.681333,0 -6.073413,5.603172 -9.664053,8.8125 -3.592,3.209328 -7.79216,6.725101 -8.021493,7.259765 l -2.29296,1.222657 c 0,0 -4.43196,0.4577 -4.890626,-0.154297 -0.457334,-0.610667 -10.0086269,-4.963683 -11.0019602,-5.041016 -0.9933333,-0.076 -4.2779732,2.978664 -5.1953065,3.361328 0,0 -0.9931733,3.132649 -2.062506639812,5.195313 0,0 0.840799979812,2.598131 5.578133239812,5.578125 0,0 0.152,5.423151 0,10.61914 0,0 -1.8341333,3.591469 -2.2168,4.355471 0,0 -8.133e-4,2.12326 -0.9941466,3.97265 0.5146533,0.91722 4.8914532,0.91797 9.2460927,0.91797 0,0 21.163733,0.84 25.289066,4.58399 0,0 10.927413,-13.600748 11.691413,-13.830081 l 4.42968,-4.048828 c 2.292,-2.902661 11.537107,-14.517578 11.537107,-14.517578 0,0 -3.603974,-3.000981 -7.80664,-4.070312 -4.20264,-1.069331 -4.721507,-1.963855 -9.076173,-2.117188 0,0 1.22152,-5.042987 0.992186,-5.958984 -0.229333,-0.917333 0,-4.861329 0,-4.861329 z M 761.64259,91.445312 c 0,0 13.44857,1.937485 21.69921,7.744141 0,0 -9.27124,14.872377 -12.83788,22.207027 0,0 -12.01885,2.03645 -19.66016,4.78711 -7.64,2.75066 -6.72375,2.44532 -9.06641,2.44532 0,0 6.21354,-9.47307 8.04688,-13.65039 1.83466,-4.176 1.93749,-6.62153 5.29882,-11.71485 3.36267,-5.093321 6.51954,-11.818358 6.51954,-11.818358 z m -384.41406,5.527344 c 3.24711,0.07644 6.97763,0.279836 11.15429,0.6875 0,0 -3.15581,4.991534 -3.86914,6.519534 -2.17315,2.59321 -2.3132,5.8496 -3.9746,8.66015 -1.528,2.34267 -3.87023,5.70289 -4.07423,6.82422 0,0 -2.95329,10e-4 -7.02929,1.42774 -4.07467,1.42533 -13.95508,4.78711 -13.95508,4.78711 0,0 -1.32422,-1.32573 -1.32422,-2.03907 l 1.01758,-5.09179 c 0.30533,-1.732 0.81466,-4.68597 2.13866,-7.64063 1.32534,-2.95466 3.7704,-8.35394 4.78907,-13.447264 0,0 5.38559,-0.916811 15.12696,-0.6875 z m 540.88281,2.048829 c 4.08755,0.03349 8.20745,0.14176 11.92578,0.371093 0,0 -0.46353,1.403332 -2.24219,3.972652 -1.37866,1.992 -3.85603,4.77575 -5.55469,7.56641 -2.51599,4.13466 -5.02546,8.78821 -6.46679,12.9082 0,0 -11.61176,2.03931 -16.70508,4.2793 -5.09333,2.24133 -7.13193,2.24065 -8.5586,1.83399 0,0 -1.42424,-2.74999 -4.37891,-5.19532 0,0 2.44446,-5.80577 3.56446,-9.37109 1.12,-3.56533 1.32465,-5.70553 1.83398,-7.13086 0.50934,-1.42666 2.03709,-5.40039 2.34376,-8.761719 0,0 11.97561,-0.573156 24.23828,-0.472656 z M 51.003911,101.58984 c -0.185587,2.18216 -2.752787,3.54065 -4.267573,5.05469 -1.266667,1.272 -2.96736,3.81061 -4.44336,5.33594 -1.498667,1.54933 -2.769427,2.08589 -3.996093,3.33789 l -13.404293,-2.87891 c -5.816907,-0.45866 -10.235213,-1.14631 -16.8261732,-1.52734 0,0 -4.8912932,7.33465 -5.5019599,11.30664 l 5.1953199,5.50195 c 0,0 0.1520133,4.12565 0.9160133,7.18164 0.764,3.056 7.6406269,16.96094 7.6406269,16.96094 0,0 -1.375334,8.40493 -0.611334,13.90625 0,0 1.906854,1.56978 4.4336,1.375 2.38404,0.0919 5.651693,-1.528 5.957027,-2.13867 0.305333,-0.61067 0,-1.375 0,-1.375 0,0 26.131519,-9.01658 32.548826,-10.39258 l 7.947266,-21.84961 11.917973,-20.32422 c 0,0 -15.12792,0.61101 -18.642586,1.375 0,0 -1.069027,-1.5283 -2.902333,-1.68164 0,0 0.305,-1.83235 0.763666,-2.29101 0.457334,-0.45867 2.138667,-4.73828 2.138667,-4.73828 0,0 -2.292613,-2.13868 -8.86328,-2.13868 z m 981.312489,1.97852 c 0.5093,0.10133 3.3613,2.44531 3.3613,2.44531 0.204,7.02932 -5.2962,24.55163 -9.2695,32.59961 -3.9733,8.04798 -14.1606,30.15301 -15.8926,34.125 -1.732,3.97333 -12.73434,25.57227 -12.73434,25.57227 l -3.66797,-0.10352 c 0,-2.852 2.2e-4,-5.09354 1.32422,-10.49219 1.32399,-5.39999 2.44531,-15.99392 2.44531,-18.03125 0,-2.03733 1.1213,-7.13085 1.5293,-9.57617 0.408,-2.444 1.73048,-10.49219 1.73048,-10.49219 16.8093,-37.08126 28.9316,-45.33399 28.9316,-45.33399 1.3254,-0.10266 1.7329,-0.81422 2.2422,-0.71289 z m -898.20506,3.56641 3.87305,2.24023 c 0.30533,13.95597 -2.44597,24.34808 -4.27931,29.44141 -1.83333,5.09332 -10.18857,19.25279 -13.7539,23.93945 -3.56531,4.68532 -9.7793,15.17969 -9.7793,15.17969 l -4.27734,-0.91797 c 1.83333,-4.17599 3.56534,-14.26104 6.72265,-27.40235 3.15867,-13.1413 4.07487,-19.15276 7.13087,-25.46875 5.16133,-10.66531 12.53016,-14.0575 13.54882,-15.07617 1.01867,-1.01866 0.81446,-1.93554 0.81446,-1.93554 z m 971.34566,26.92578 -1.375,1.375 h -3.2089 l -3.3614,9.16797 c -0.9173,0.45866 -8.8613,-0.61133 -8.8613,-0.61133 -5.0427,3.51466 -17.4219,18.94726 -17.4219,18.94726 -1.0693,0.15334 -4.2773,-1.67968 -4.2773,-1.67968 -0.764,0.45866 -0.7643,2.29132 -1.6817,3.97265 -0.9173,1.68133 -2.5976,3.66797 -2.5976,3.66797 l 3.666,2.29102 c -4.8893,5.50132 -14.8209,11.46124 -16.9609,13.14257 -2.1387,1.68 -3.8204,4.58399 -3.8204,4.58399 0,0 4.1254,1.37467 7.0293,2.13867 2.9027,0.76533 20.7819,1.83432 24.1446,3.20899 3.3613,1.37599 3.209,2.25585 3.209,2.25585 0,0 -2.1403,2.90168 -1.6817,3.51368 0.4587,0.61066 4.0895,2.34864 4.8535,2.19531 0.764,-0.15333 3.75,-3.85156 3.75,-3.85156 4.432,-0.764 8.6817,1.65625 8.6817,1.65625 2.7506,-9.01599 9.914,-14.21094 9.914,-14.21094 11.6133,3.36266 13.9063,5.23242 13.9063,5.23242 0.4587,-3.20799 2.9027,-4.31511 4.2773,-6.14844 1.376,-1.83466 2.5977,-4.58398 2.5977,-4.58398 0.7639,-2.5231 1.3937,-4.51826 2.293,-9.16992 -1.8347,-1.83333 -7.793,-3.20899 -7.793,-3.20899 -2.4453,-10.39064 -8.709,-18.60547 -8.709,-18.60547 2.7493,-10.39064 0.6113,-12.07226 0.6113,-12.07226 -1.2226,0 -7.1836,-3.20703 -7.1836,-3.20703 z m -355.12301,41.83789 c 3.872,0.204 11.41124,4.4822 14.97657,6.51953 3.56531,2.03733 11.8164,5.19531 11.8164,5.19531 l -12.63085,19.9668 c -2.24134,-1.42533 -5.09592,-1.62957 -7.64259,-2.24024 -2.54667,-0.61199 -9.47352,-4.1788 -12.93749,-5.60547 -3.464,-1.42533 -6.11134,-1.32226 -6.11134,-1.32226 0,0 1.42598,-2.24284 3.05664,-4.07617 1.62934,-1.83333 9.47266,-18.4375 9.47266,-18.4375 z m 371.90621,58.13867 c -1.6191,0.10089 -8.7285,9.48242 -8.7285,9.48242 h -10.9258 c -1.5279,1.68133 -2.5957,5.50195 -2.5957,5.50195 3.3614,1.98667 2.1387,2.90232 0.9161,3.20899 -1.2214,0.30533 -14.211,10.08594 -14.211,10.08594 0,0 0.4961,1.0307 1.8321,1.4707 2.8168,1.58397 6.8659,1.98988 9.9335,2.80664 5.8067,1.68 8.5586,3.51563 8.5586,3.51563 -1.2226,1.83332 -2.5996,5.04101 -2.5996,5.04101 -0.1771,0.67605 -0.279,1.15159 -0.4648,2.44531 -0.3966,2.55234 0.3837,4.40666 1.0957,5.22266 0.7133,0.81467 3.9746,4.38086 3.9746,4.38086 0,0 0.8136,20.27212 -0.2051,26.99609 0,0 3.1586,-1.22307 6.1133,-4.17773 2.648,-2.64799 4.0587,-5.98555 7.9453,-11.4082 3.7547,-5.23866 7.8961,-10.45472 9.2481,-12.74806 2.4145,-4.09232 4.4175,-8.03994 5.498,-11.27148 0.022,-0.0107 0.086,-0.04 0.1074,-0.0508 l 7.4883,-4.42968 c 1.528,-1.68133 2.75,-4.73828 2.75,-4.73828 -1.0693,-1.528 -5.8066,-5.34766 -5.8066,-5.34766 0.6106,-3.51465 0.459,-9.16992 0.459,-9.16992 1.528,-2.13866 4.7366,-2.75002 6.1113,-3.66601 1.3747,-0.91733 2.293,-3.66828 2.293,-5.34961 0,-1.68 -3.3614,-3.20703 -3.3614,-3.20703 -1.5226,0.60938 -16.6562,0.60937 -16.6562,0.60937 -2.904,-0.61066 -5.7195,-5.39317 -8.7696,-5.20312 z M 319.63868,267.6582 v 68.72071 h 7.22852 v -44.76368 l 37.65038,56.03712 v -68.23829 h -7.22461 v 44.72461 z m 425.82617,0 v 68.72071 h 7.22656 v -44.76368 l 37.65039,56.03712 v -68.23829 h -7.2246 v 44.72461 z m 216.375,0 v 68.72071 h 7.22852 v -44.76368 l 37.65043,56.03712 v -68.23829 h -7.2266 v 44.72461 z m -298.19922,1.65625 -25.82617,67.0625 h 8.0039 l 17.97658,-48.98047 18.74218,48.98047 H 691.125 Z M 253.9922,279.41406 v 56.96485 h 42.50976 v -6.72265 h -34.97071 v -19.39063 h 31.51172 v -6.68164 h -31.51172 v -17.44923 h 33.64844 v -6.7207 z m 132.53906,0 v 6.7207 h 18.76563 v 50.24415 h 7.54101 v -50.24415 h 18.84375 v -6.7207 z m 66.25,0 v 56.96485 h 42.50976 v -6.72265 h -34.97265 v -19.39063 h 31.51172 v -6.68164 h -31.51172 v -17.44923 h 33.65038 v -6.7207 z m 66.25,0 v 56.96289 h 7.53711 v -25.29492 -6.52735 -18.84569 h 18.02929 c 4.224,0 7.31159,0.86689 9.26759,2.60156 1.95466,1.73733 2.93554,3.95183 2.93554,6.64648 0,1.84 -0.50629,3.54271 -1.51562,5.10937 -1.01067,1.56934 -2.04714,2.46375 -3.70312,3.70508 -5.81599,4.36132 -12.32618,3.92383 -12.32618,3.92383 1.26132,1.29867 3.34743,3.86363 4.33007,5.01563 0.892,1.04533 1.76351,2.15409 3.18751,3.96874 1.42533,1.812 3.23812,4.42706 5.43945,7.84571 l 7.54101,11.85156 h 9.48047 l -9.9082,-15.50195 c -1.968,-3.032 -4.05455,-5.55813 -6.25585,-7.57813 -1.03734,-0.93332 -1.71632,-1.50129 -3.32032,-3.02929 5.46533,-0.752 8.2805,-2.31919 10.89649,-5.08984 2.61732,-2.77334 3.92577,-6.17938 3.92577,-10.22071 0,-3.13332 -0.79305,-5.99661 -2.37304,-8.58593 -1.58,-2.592 -3.68874,-4.3985 -6.33008,-5.42383 -2.64266,-1.02267 -6.50337,-1.53321 -11.58204,-1.53321 z m 64.85156,0 v 6.7207 h 18.76758 v 50.24415 h 7.53906 v -50.24415 h 18.8457 v -6.7207 z m 127.75781,0 v 56.96289 h 7.53906 v -56.96289 z m 104.48242,0 v 56.96485 h 7.26563 v -48.49415 l 16.47461,48.49415 h 6.80273 l 16.55274,-47.67579 v 47.67579 h 7.26562 v -56.96485 h -10.14257 l -13.63868,39.63281 c -1.372,4.016 -2.38263,7.06144 -3.02929,9.13477 -0.572,-1.86533 -1.47867,-4.6776 -2.72266,-8.4336 L 827.4707,279.41406 Z m 79.89063,0 v 56.96485 h 42.50976 v -6.72265 h -34.9707 v -19.39063 h 31.51172 v -6.68164 h -31.51172 v -17.44923 h 33.64844 v -6.7207 z m 132.53902,0 v 6.7207 h 18.7657 v 50.24415 h 7.541 v -50.24415 h 18.8437 v -6.7207 z" id="path1" />
</svg>
