<?xml version="1.0" encoding="UTF-8" standalone="no"?>

<svg version="1.1" viewBox="0 0 888.6699 994.07035" xml:space="preserve" id="svg1"
  xmlns="http://www.w3.org/2000/svg"
  xmlns:svg="http://www.w3.org/2000/svg">
  <path d="m 387.66402,0 c 0,0 -31.75872,51.013945 -63.91603,95.476567 0,0 -4.16828,-2.581479 -19.8496,-2.382814 l -0.79297,-8.533202 c 0,0 -33.14992,-4.169801 -55.97656,2.38086 0,0 -17.86579,92.500239 -18.06446,120.685549 0,0 0.79565,5.35901 -6.15234,6.15234 0,0 -10.32282,5.95671 -10.52149,10.7207 l 42.67774,-10.32226 c 0,0 -5.55785,-14.68876 -4.36719,-17.46875 0,0 11.11525,-6.15254 19.25391,-7.14453 8.13866,-0.992 37.31836,16.07812 37.31836,16.07812 l -40.29492,-6.35156 c 0,0 0.99076,9.3292 5.35742,13.89453 0,0 5.46801,2.13367 13.5,3.375 12.17065,1.87866 30.73003,3.86298 49.02734,10.32031 0,0 25.21043,14.09445 28.98243,52.20508 l -14.4922,-13.69727 c 0,0 1.78815,1.98565 2.38281,7.54297 l 23.81836,25.60742 c 0,0 8.33768,-12.30621 11.51368,-18.6582 0,0 18.26145,-4.36733 70.66407,-6.75 l 8.33788,5.16016 c 0,0 46.44846,-37.71316 57.56446,-41.28516 0,0 -1.58931,-19.454 -9.5293,-35.33398 0,0 6.75094,5.95442 17.07226,27.78906 0,0 13.89443,-7.54142 15.48243,-25.80274 l -4.76563,-8.5371 5.75781,5.35937 c 0,0 2.18272,-59.15137 6.74804,-73.44336 l 16.27735,-10.91797 c 0,0 -1.58676,-26.993315 -10.71875,-43.667965 l -9.92578,-0.396484 c 0,0 -7.34244,-9.92535 -18.25976,-16.277343 L 505.373,53.593754 476.58979,77.214847 c 0,0 -26.79725,-11.314102 -49.22656,0.19922 -2.13467,1.094665 -5.16211,0 -5.16211,0 0,0 -11.10678,-7.542942 -9.32813,-73.0468804 C 412.87999,4.1031866 387.66402,0 387.66402,0 Z m 208.09374,116.19336 c -2.22273,0.0489 -3.8418,0.52344 -3.8418,0.52344 -9.32931,11.51197 -24.61328,44.85937 -24.61328,44.85937 1.38933,8.33732 7.34571,13.89454 7.34571,13.89454 2.18266,-4.168 5.95508,-6.94727 5.95508,-6.94727 7.1453,73.24518 1.18945,100.43945 1.18945,100.43945 l -8.73243,4.16797 c -0.19866,-45.65324 4.96064,-55.77747 5.55664,-62.32812 0.596,-6.55066 -7.14453,-12.90039 -7.14453,-12.90039 -8.73464,27.19327 -4.96288,79.19921 -4.96288,79.19921 l -11.91016,7.14454 c 0,0 0.39593,-12.90167 0.19727,-18.45899 -0.19867,-5.55865 -6.74806,-12.30664 -6.74806,-12.30664 -0.596,9.72665 -2.18358,36.7207 -2.18358,36.7207 -4.96267,-2.18266 -9.13087,0.19922 -9.13087,0.19922 -3.37464,-11.71064 -0.39619,-14.88621 -0.99219,-18.6582 -1.30533,-8.27198 -6.94726,-12.70508 -6.94726,-12.70508 -4.16798,4.96266 -10.32227,27.39453 -10.32227,27.39453 -0.79466,2.77866 -2.38214,2.77779 -3.77148,4.56446 -1.38933,1.78666 -1.18945,4.96289 -1.18945,4.96289 0,0 -3.17663,1.3885 -2.77929,3.17382 0.396,1.78667 9.13085,16.27735 9.13085,16.27735 l -0.39844,-3.57226 c 1.75867,-0.87867 5.10722,4.5077 8.33789,8.73437 2.60133,3.40267 5.35937,5.75585 5.35937,5.75585 l -7.14648,-15.8789 25.4082,6.74805 c 44.06659,48.43323 72.25196,86.9414 72.25196,86.9414 1.98534,12.50533 1.1914,36.52344 1.1914,36.52344 26.00395,9.52666 65.70215,21.63628 71.85548,19.84961 6.15331,-1.78667 12.90233,-11.51367 12.90233,-11.51367 0,0 1.54955,0.86758 6.35352,-0.59376 22.84395,-6.9533 40.12686,-13.10364 52.79883,-17.0703 10.11867,-3.168 17.77847,-4.65563 19.45313,-6.1543 3.77197,-3.37333 3.37304,-6.1543 3.37304,-6.1543 3.57333,-1.78531 6.94923,-7.34375 6.94923,-7.34375 5.5573,-0.19867 12.90038,3.17579 12.90038,3.17579 0,0 21.63744,-21.83488 24.21875,-25.40822 2.58,-3.57197 6.74609,-12.50585 6.74609,-12.50585 0.99334,-8.93197 0,-24.41406 0,-24.41406 -16.67328,-21.43728 -40.29296,-27.78906 -40.29296,-27.78906 2.38264,-2.184 1.38867,-4.16797 1.38867,-4.16797 -2.96933,-7.12933 -4.96093,-25.60742 -4.96093,-25.60742 -12.50531,-9.72665 -15.28635,-18.45899 -18.26368,-18.45899 -2.97731,0 -2.77733,4.16797 -2.77733,4.16797 l -2.38282,-4.56641 64.9082,-64.31054 c -8.33731,-11.91065 -14.88672,-27.79102 -14.88672,-27.79102 -46.64792,8.33732 -112.34961,16.67383 -112.34961,16.67383 -2.184,-2.58133 -5.35937,-1.78516 -5.35937,-1.78516 0,0 3.6e-4,-3.37619 -0.79298,-6.35351 -0.79466,-2.97733 -17.07041,-22.82694 -27.78905,-32.15625 -10.72,-9.32932 -19.65235,-10.12305 -19.65235,-10.12305 0,0 -16.87153,-20.8418 -22.82617,-20.8418 -13.9173,0 -14.68945,6.54883 -14.68945,6.54883 -3.37467,-10.51998 -10.12305,-15.87695 -10.12305,-15.87695 -1.19067,2.57999 -4.36719,3.57031 -4.36719,3.57031 -2.35749,-6.45082 -7.73879,-7.55027 -11.44336,-7.46875 z m -407.84179,58.6543 c -10.05598,23.84662 -16.32356,48.66417 -16.7129,49.9375 -0.38799,1.27333 -3.16157,2.87639 -3.8789,3.40039 -0.716,0.524 -1.37632,2.57382 -2.59766,3.53516 -2.51466,1.97999 -5.83799,2.20313 -5.47265,3.34179 3.40399,10.59731 14.48437,24.92774 14.48437,24.92774 8.34132,-5.43733 17.50898,-5.98254 24.29297,-7.53321 6.78399,-1.55066 9.6801,-4.66022 9.63477,-9.68554 -0.0453,-5.02533 -7.11329,-13.49219 -7.11329,-13.49219 L 203.35542,228 c -1.15067,-3.22666 0.9082,-14.84961 0.9082,-14.84961 -4.41732,-4.68799 -4.30381,-11.1487 -6.00781,-14.08203 -1.704,-2.93199 -10.33984,-24.2207 -10.33984,-24.2207 z m -22.27149,14.29492 c 0,0 -4.39166,7.36749 -6.84765,10.27148 -2.456,2.90267 -8.93222,3.49909 -13.54688,7.81641 -4.61599,4.31732 -6.47656,7.96484 -6.47656,7.96484 -2.904,-5.58265 -6.0293,-5.06249 -6.0293,-5.06249 -0.224,12.95197 8.33698,27.69019 12.43164,34.46484 4.09333,6.77332 8.1875,6.99609 8.1875,6.99609 1.116,-5.20932 -3.12695,-15.55664 -3.12695,-15.55664 0,0 1.49081,-0.14902 4.24414,-4.54101 2.75466,-4.392 14.44018,-28.20989 15.85351,-31.56055 1.41467,-3.34933 1.86133,-6.69922 1.86133,-6.69922 0,0 -2.23226,-0.0739 -3.79492,-0.89258 -1.564,-0.81866 -2.75586,-3.20117 -2.75586,-3.20117 z m 110.04102,67.19141 c -20.56491,-0.40138 -42.47648,1.78536 -53.76563,3.89453 -18.06396,3.37466 -67.29101,20.44531 -67.29101,20.44531 -12.90264,17.46796 -21.23828,33.15039 -21.23828,33.15039 -0.39734,17.86397 4.36523,38.9043 4.36523,38.9043 27.19328,5.15998 19.45312,31.75976 19.45312,31.75976 27.78928,42.47859 48.4336,82.77149 48.4336,82.77149 0,0.79467 0.19858,11.91119 -2.58008,17.86719 -2.77866,5.95464 -2.77966,11.51109 -1.98633,16.87109 0.79467,5.35864 -1.98456,7.93972 -2.97656,11.51172 -0.992,3.57331 -1.19141,22.62891 -1.19141,22.62891 0,0 5.16215,3.77088 16.07813,9.13085 10.91731,5.36 20.24609,6.94923 20.24609,6.94923 7.54399,18.06261 35.92774,21.23828 35.92774,21.23828 -0.396,-11.31464 2.18444,-13.3002 1.78711,-17.26954 -0.39734,-3.96933 -7.54297,-16.67382 -7.54297,-16.67382 0.596,-4.16934 11.11718,-22.4297 11.11718,-22.4297 -1.38933,-7.93997 -7.34375,-13.89453 -7.34375,-13.89453 -4.96265,9.92533 -19.45507,17.07032 -19.45507,17.07032 32.55326,-70.46653 47.04479,-93.6905 52.80078,-102.42384 5.75732,-8.73464 9.92578,-7.74218 9.92578,-7.74218 -9.52798,13.29864 -17.86524,34.53906 -17.86524,34.53906 1.192,6.748 6.94727,13.69532 6.94727,13.69532 2.18266,-6.55066 26.00218,-50.02097 30.96485,-53.79297 4.96264,-3.77067 25.21093,-5.75587 25.21093,-5.75587 0.59467,2.38267 2.18164,5.5586 2.18164,5.5586 2.78,-1.78666 9.92579,-7.14648 9.92579,-7.14648 -2.58,3.97064 -13.89451,12.50594 -18.06251,15.08594 -4.16931,2.58133 -10.125,5.95508 -10.125,5.95508 -0.39733,4.5653 5.75587,13.6953 5.75587,13.6953 0,0 6.15398,1.98534 10.91796,0 12.8653,-5.3613 17.26857,-16.27588 23.42188,-24.81054 6.15333,-8.53598 8.13866,-3.375 8.13866,-3.375 0.19867,-9.92531 -5.75585,-13.89454 -5.75585,-13.89454 0,0 7.34488,1.98519 3.57421,-2.38281 -3.77197,-4.36664 2.18164,-4.96093 2.18164,-4.96093 0,0 -0.39628,-5.9559 -3.57225,-9.72656 -3.176,-3.772 -5.16016,-7.54297 -5.16016,-7.54297 h 9.92382 c 1.588,-13.69731 -0.59374,-29.97462 -0.59374,-29.97462 -3.37467,-2.3813 -4.16927,-4.96137 -5.5586,-6.74804 -1.38933,-1.78666 -4.36719,-3.57226 -4.36719,-3.57226 4.168,8.53464 2.58008,17.26757 2.58008,17.26757 -3.96933,-0.396 -6.9462,-4.96116 -10.51953,-9.92383 -3.572,-4.96264 -10.12304,-11.71093 -10.12304,-11.71093 0.59467,2.78 -0.39844,5.35937 -0.39844,5.35937 -2.184,-6.15333 -11.11568,-21.04128 -12.90235,-24.61328 -1.78666,-3.57332 -7.9401,-16.27843 -10.71874,-20.84375 -2.77867,-4.56532 -4.36646,-12.90155 -27.78907,-20.04687 -8.78348,-2.6795 -20.63762,-3.85293 -32.97656,-4.09375 z M 18.706984,339.05664 c 0,0 -9.9732539,18.75926 -14.5878938,35.2832 L 32.77729,433.51563 c 0,0 0.371947,12.10794 -0.02533,16.47461 -0.397334,4.36797 -1.78692,22.63041 -0.79492,45.45703 0.993306,22.82794 8.336946,135.96953 10.322253,141.13086 1.985333,5.16 4.167973,5.16016 4.167973,5.16016 0,0 0.199853,4.36633 2.97852,4.76366 0,0 -4.167973,1.19244 -4.167973,7.14844 0,0 -32.156506,33.94131 -45.257813,43.66798 l 6.1542901,21.83397 c 0,0 6.2973469,2.08889 15.0839869,3.57423 19.769306,3.344 48.831481,5.75446 73.246097,14.0918 0,0 2.976289,6.94857 -0.595703,8.33788 l 16.474609,1.58789 c 0,0 4.56675,17.27009 20.24805,42.08204 0,0 11.90918,-0.19992 18.0625,-2.78126 0,0 -0.59539,2.38256 6.94727,1.5879 0,0 1.58736,11.51473 -2.7793,20.24804 0,0 24.81282,-1.78592 32.35547,1.19141 7.54265,2.97733 9.92502,9.92353 12.90234,10.51953 2.97733,0.59467 11.31446,-3.9707 11.31446,-3.9707 0,0 0.99226,3.77288 3.57226,3.57421 2.58,-0.19867 22.74241,-23.92724 27.78906,-39.69921 1.588,-4.96267 -6.55078,-14.09375 -6.55078,-14.09375 l -1.38867,0.99219 0.39648,-97.85743 c 0,0 9.13157,-10.32226 11.7129,-10.32226 2.57999,0 14.09319,19.05461 13.89453,24.61328 -0.19867,5.55733 -8.13867,23.62174 -8.13867,26.40038 0,2.77867 9.03125,18.6211 9.03125,18.6211 0,0 1.7871,-0.79315 1.7871,-1.78515 0,-0.99333 0.59524,-5.95712 2.97657,-8.53712 2.38266,-2.57997 9.18656,-29.98099 9.72656,-45.65429 0.39733,-11.51198 -3.77149,-15.48243 -3.77149,-15.48243 0,0 1.19162,-10.12252 -1.98437,-18.06249 -3.17599,-7.94 -65.7034,-44.266 -69.27539,-46.25 C 195.61808,590.0928 182.71508,579.77066 175.3711,576 c -7.34399,-3.77198 -34.73652,-9.32952 -48.03516,-9.13086 0,0 -0.1979,3.57328 -2.97656,5.55859 -1.144,0.81733 -2.82934,0.95075 -5.36133,2.58008 -3.61999,2.33067 -8.53359,9.13103 -15.87891,14.29103 0,0 -0.39854,-5.35887 1.18946,-9.13087 1.58799,-3.77067 5.36027,-5.75655 8.93359,-12.50585 3.572,-6.748 6.55163,-13.49739 6.1543,-14.88672 0,0 16.07734,-0.79443 40.89062,4.96288 l -1.58789,-22.0332 c 0,0 -24.81483,-16.27632 -26.79883,-18.45899 -1.98533,-2.184 -4.76367,-2.97851 -4.76367,-2.97851 0,0 -0.27086,-0.75589 1.0918,-1.94922 3.17599,-2.77867 3.12553,-10.48399 -9.67578,-10.22265 -7.29465,0.14933 -15.63185,3.47614 -28.285162,14.24414 0,0 -1.937628,-1.78723 3.818358,-6.69923 5.757323,-4.9133 14.343334,-14.64061 16.972664,-18.80858 0,0 9.80135,-3.05827 14.63867,3.62304 1.04266,1.43867 31.11494,22.28129 31.71094,22.52929 0,0 -1.44075,-38.06138 -15.13672,-51.83202 -13.69597,-13.77064 -52.666586,-20.12582 -64.087897,-18.31251 -4.689323,0.744 -19.056641,21.88477 -19.056641,21.88477 0,0 -2.679275,-8.48644 5.359376,-19.20508 8.03865,-10.71864 9.00748,-15.11058 17.716797,-15.78125 8.707981,-0.66933 28.359815,1.19171 30.369145,2.45704 0,0 1.93555,-9.75012 -1.78711,-16.74609 -3.72133,-6.99734 -12.355614,-20.47188 -13.099614,-23.67188 0,0 -2.754175,0.96774 -11.910156,-7.51759 -9.154648,-8.48531 -48.384407,-39.30314 -67.068353,-49.20312 z m 508.300776,51.7832 c -14.88797,2.58133 -29.57421,2.58008 -29.57421,2.58008 0,0 -6.3522,-0.39617 -9.13087,7.14649 -2.78,7.54264 -19.05664,25.00976 -19.05664,25.00976 l -54.58593,-3.17578 c 0,0 -3.17639,3.17522 -10.12305,7.14453 -6.94798,3.97067 -10.76687,2.89669 -17.26953,6.75 -5.35998,3.176 -10.52115,9.92605 -19.45312,13.49805 -16.35998,6.54398 -25.40803,6.3506 -27.19336,8.33594 -2.34934,2.61066 -4.16992,11.51368 -4.16992,11.51368 l -0.99219,-9.13087 -27.39258,15.87891 c -10.32265,26.79728 -10.15257,71.24373 -11.11524,97.26367 -0.41333,11.15064 -1.98437,18.06446 -1.98437,18.06446 10.71864,19.05594 12.5039,29.57421 12.5039,29.57421 31.16394,2.77867 59.15234,9.13087 59.15234,9.13087 3.176,-5.756 14.49024,-16.07618 14.49024,-16.07618 38.90525,-1.78666 97.46199,-7.14708 106.19532,-5.95508 8.73464,1.19067 15.48339,13.10039 21.63672,18.26172 6.15331,5.15998 11.31445,6.35156 11.31445,6.35156 0,0 5.95357,-9.32852 15.87891,-16.67382 9.9253,-7.344 26.20116,-7.54298 26.20116,-7.54298 1.588,-6.35197 1.19141,-11.71093 1.19141,-11.71093 -3.572,-1.78667 -7.93945,-1.58789 -7.93945,-1.58789 -9.13064,-20.64395 -25.40626,-72.45312 -25.40626,-72.45312 3.76934,7.66664 7.3185,12.21941 9.92383,17.46874 13.69731,27.59062 15.08595,25.4082 15.08595,25.4082 l 0.59374,-2.77929 c 0,0 5.16286,5.75591 6.35352,0.19727 0.524,-2.44267 1.35648,-6.03614 0.39648,-9.32814 -1.38933,-4.76264 -7.54246,-11.11449 -19.45313,-34.5371 -9.06131,-17.82264 -22.03238,-37.31737 -26.40038,-43.47071 -4.36667,-6.1533 -8.53376,-20.64441 -8.73243,-26.40038 -0.19867,-5.75734 -0.59644,-13.89563 10.51953,-18.46094 11.116,-4.56533 16.67383,3.17578 16.67383,3.17578 -12.70398,13.29997 -9.72656,35.13477 -9.72656,35.13477 11.11597,12.70397 15.08704,28.7812 27.79101,54.78514 12.704,26.00264 16.07813,24.81056 16.07813,24.81056 1.588,-39.30261 -3.77148,-119.69337 -3.77148,-119.69337 z m 283.45313,68.48048 c -34.34525,0 -77.61089,21.0422 -83.96289,24.01953 -6.35198,2.97731 -10.32227,2.77734 -10.32227,2.77734 l 4.36719,5.95508 c 6.15333,-2.58 22.0332,-1.18946 22.0332,-1.18946 -16.27728,8.13867 -30.57031,10.32032 -30.57031,10.32032 8.93331,4.16798 18.46093,13.30077 18.46093,13.30077 0,0 13.3006,-3.77186 36.92188,-13.89453 23.62128,-10.12397 29.97071,-7.34569 29.97071,-7.34569 -3.87867,3.02264 -10.40632,5.80075 -17.07032,9.33008 -22.65461,12.0013 -54.59523,25.55957 -55.97656,25.40624 -1.78533,-0.19867 -47.83593,-35.33203 -47.83593,-35.33203 l 14.29101,0.99219 -6.44923,-14.88672 c -15.78128,-4.46667 -52.40429,-1.78516 -52.40429,-1.78516 l -0.89453,4.16797 2.67969,0.89258 c -1.78666,2.084 -11.61133,8.03906 -11.61133,8.03906 l -1.48828,16.97071 c 5.656,5.6573 10.27344,25.90429 10.27344,25.90429 -1.95067,7.97733 -3.79383,15.38005 -5.53516,22.24805 -2.644,10.42931 -6.11721,17.87435 -8.31055,25.98632 -4.25466,15.73864 -6.63081,29.14432 -9.38281,37.76563 -7.37731,23.11197 -9.82227,24.46289 -9.82227,24.46289 0,0 -24.86308,12.05935 -32.45508,16.97265 -7.5933,4.912 -4.46529,14.88614 -4.16796,16.07814 0.29867,1.19066 8.1875,32.75 8.1875,32.75 23.22528,21.88528 46.59765,40.04688 46.59765,40.04688 -5.50797,9.82664 -6.84765,18.75976 -6.84765,18.75976 1.04266,1.04133 5.95433,1.63732 8.48633,2.08398 2.53067,0.44667 4.61388,2.82916 5.06055,3.42383 0.44666,0.596 8.93164,10.12304 8.93164,10.12304 18.7573,5.95466 44.21573,26.4988 47.78906,29.32813 3.57331,2.828 4.3164,5.95508 4.3164,5.95508 0,0 2.82857,-0.74609 4.61524,0.89257 1.78667,1.63734 0.14873,4.61492 1.1914,5.65626 2.16933,2.17066 8.18945,4.4668 8.18945,4.4668 -2.23333,0.44666 -3.87304,2.9785 -3.87304,2.9785 1.78667,0 3.1262,1.19022 4.01954,1.93555 0.8933,0.744 3.12694,1.19141 3.12694,1.19141 0.744,5.65731 5.6582,5.65626 5.6582,5.65626 0.59467,4.16797 12.70314,11.41405 12.70314,11.41405 4.1253,-3.66797 9.35448,-6.86019 14.50781,-9.49219 4.87997,-2.49066 9.73247,-3.18822 13.48047,-4.60156 4.28933,-1.61733 7.14648,-3.77148 7.14648,-3.77148 1,-3.89333 3.03185,-8.1224 5.47852,-12.23437 1.54266,-2.592 3.91938,-3.64068 5.63672,-6.02735 1.13066,-1.57066 -0.0625,-2.47677 0.99218,-3.96874 0.89867,-1.272 2.87282,-1.05356 3.77148,-2.18556 3.48534,-4.39198 6.35156,-9.72656 6.35156,-9.72656 0.396,-30.76659 -5.95312,-54.58593 -5.95312,-54.58593 12.30664,-33.54528 27.98633,-65.50196 27.98633,-65.50196 23.81862,9.32933 69.4746,36.91992 69.4746,36.91992 9.92534,-7.93998 20.44532,-32.35547 20.44532,-32.35547 0,0 -39.89904,-73.44476 -46.8457,-85.55273 -6.94798,-12.10931 -5.35992,-14.2922 -5.55859,-17.26953 -0.19733,-2.97734 -1.19141,-4.96094 -1.19141,-4.96094 0,0 5.36048,-0.993 5.75781,-1.98633 0.396,-0.992 11.31361,-63.71703 7.54297,-80.98633 -3.772,-17.26928 -13.6977,-25.20905 -19.65234,-27.78905 -5.95467,-2.58 -13.29883,1.38866 -13.29883,1.38866 -0.19867,-2.77866 -3.37489,-9.13085 -4.96289,-9.13085 z M 52.115183,615.53712 c 0,0 0.54832,6.5864 1.097653,10.42773 0.549333,3.84264 2.744141,8.23047 2.744141,8.23047 -6.037328,-1.64534 -5.488608,-4.38866 -6.585941,-8.7793 -1.097333,-4.39066 2.744147,-9.8789 2.744147,-9.8789 z m 154.519537,47.44139 c 0,0 -5.95429,9.52747 -13.09961,16.07814 -7.14666,6.55064 -9.72657,7.74022 -9.72657,7.74022 0,0 -11.11755,21.04264 -10.32421,66.89454 0,0 -3.17409,-0.79366 -3.96876,-7.54296 -0.79333,-6.748 0.39694,-54.78478 2.1836,-59.74611 0,0 21.63614,-16.07856 25.60547,-17.86523 3.97066,-1.78666 7.34475,-2.9786 9.33008,-5.5586 z m 307.4707,6.75 c -1.78667,0.19734 -2.18164,3.76954 -2.18164,3.76954 -2.184,-0.19867 -9.92586,0.59718 -12.50586,2.97852 -2.58133,2.38266 -14.09425,1.58748 -19.85156,3.77148 -5.756,2.18266 -16.87173,16.47422 -19.6504,18.6582 -2.77866,2.18266 -16.27605,3.375 -27.19336,3.375 -10.9173,0 -14.8867,-3.57358 -19.05468,-4.96288 -4.16933,-1.38934 -19.85226,-3.77194 -29.3789,-5.5586 -9.528,-1.78534 -18.65813,-6.54834 -28.38477,-10.32031 -9.72664,-3.772 -13.91807,-10.66445 -24.41407,-9.92579 -4.37864,0.30934 -7.88731,0.58494 -10.91796,2.1836 -0.80934,0.42664 -2.30108,3.35011 -4.56641,5.16211 -0.992,0.79333 -2.82342,1.36164 -3.96875,2.18164 -0.796,0.56933 -1.78711,2.38281 -1.78711,2.38281 2.58133,5.35864 -1.38867,11.71094 -1.38867,11.71094 -11.51331,5.36 -23.62173,22.82716 -26.40039,28.98046 -2.77866,6.15467 -17.26932,23.42279 -20.44532,26.9961 -3.17599,3.57333 -9.33007,13.69532 -9.33007,13.69532 3.77199,17.66661 6.94922,91.90429 6.94922,91.90429 0,0 0.59398,0.7936 5.55664,3.57226 4.96265,2.77867 32.55273,28.38672 32.55273,28.38672 l 15.08789,-17.86522 c 11.51197,-2.58 50.61545,15.2844 59.74609,18.2617 9.13067,2.97734 7.1465,7.44336 7.1465,7.44336 4.14797,3.104 5.38746,4.80542 5.85546,14.88672 0.95334,20.54664 -2.8789,54.28907 -2.8789,54.28907 23.22394,12.90264 39.69921,28.38477 39.69921,28.38477 0,0 79.79589,-88.13138 85.94922,-92.49805 6.15331,-4.368 16.47443,-7.74197 23.62109,-10.91797 7.14531,-3.176 13.10031,-7.54426 15.68164,-8.93359 2.58,-1.38933 7.74238,-0.39545 8.73438,0.19921 0.992,0.596 29.17773,25.60743 29.17773,25.60743 0,0 4.96237,2.18192 12.90235,-1.19141 7.93997,-3.37464 14.49094,-16.67554 19.84961,-24.01954 5.35997,-7.34397 16.07812,-16.87109 16.07812,-16.87109 0.79333,-3.37464 0,-14.29296 0,-14.29296 6.94667,9.52797 9.33008,9.72656 9.33008,9.72656 0.79333,-9.72664 -6.15287,-24.61283 -10.51953,-32.35547 -4.36798,-7.74133 -6.75,-16.87109 -6.75,-16.87109 l -9.13086,-3.77149 c 0,0 -9.52685,-18.65814 -13.29882,-24.2168 -3.77067,-5.55731 -7.74219,-7.14648 -7.74219,-7.14648 l 2.58203,9.33008 c 0.59466,1.588 4.81744,5.85181 5.35741,7.14648 1.98533,4.764 2.97852,15.28321 2.97852,15.28321 -1.984,-4.56533 -6.15429,-10.32227 -6.15429,-10.32227 0.19866,17.07062 -4.56446,17.07227 -4.56446,17.07227 -0.59466,-2.77867 -5.95508,-10.91797 -5.95508,-10.91797 0,0 -9.83529,-15.4505 -15.08593,-27.5918 -6.352,-14.68931 -9.72657,-14.0918 -9.72657,-14.0918 0.376,4.25333 8.28129,17.78564 13.69726,27.98828 3.176,5.984 5.16016,11.51172 5.16016,11.51172 -6.94797,-0.99334 -16.47438,-11.90983 -19.65038,-16.67383 -3.176,-4.76397 -8.33658,-20.04738 -11.11524,-28.58202 -2.78,-8.53598 -13.10116,-28.98163 -15.28516,-36.12696 -2.18264,-7.14664 -3.57226,-14.88867 -3.57226,-14.88867 12.70398,6.35197 22.82616,18.6582 22.82616,18.6582 0.596,-10.91731 -22.0332,-35.72852 -22.0332,-35.72852 l 4.56446,3.375 c 0,0 -1.78535,-15.08619 -2.77735,-15.88085 -0.992,-0.79334 -16.27608,-2.57868 -18.85741,-2.77735 -2.58,-0.19867 -4.56641,-3.57227 -4.56641,-3.57227 z m -288.61328,14.29102 c 0,0 1.78677,96.26989 -1.58789,99.64453 0,0 -1.38897,-2.18311 -0.79297,-8.73242 1.36266,-14.98797 -2.69683,-43.09441 -9.13281,-44.06641 0,0 -0.79278,9.72614 0.19921,16.07814 0.99334,6.35197 0.59571,20.24609 0.59571,20.24609 0,0 -7.34375,-11.71191 -7.34375,-17.86524 0,-6.15331 11.11585,-58.55536 18.0625,-65.30469 z m 267.83789,7.80274 c 1.521,1.9e-4 3.30859,0.33398 3.30859,0.33398 -4.36664,1.19066 -5.45898,3.17773 -5.45898,3.17773 0,0 -0.29697,-0.69485 -0.79297,-0.99219 -0.496,-0.29866 -1.58964,0.49479 -2.68164,1.18946 -1.092,0.69466 -2.18164,-0.5957 -2.18164,-0.5957 0.59467,-1.488 4.96184,-2.57924 6.45117,-2.97657 0.372,-0.0991 0.84847,-0.13677 1.35547,-0.13671 z m 26.4336,10.45898 c 0,0 6.94704,9.92396 10.12304,18.5586 3.176,8.63464 4.76417,18.06432 8.4375,25.90429 3.67198,7.84133 10.51922,24.81109 13.19922,29.17773 2.67866,4.36667 13.20082,21.83445 11.91016,33.84376 0,0 -4.26923,-1.29063 -6.94923,-6.25196 -2.67864,-4.96264 -7.18284,-20.87707 -11.21484,-29.87304 -3.87067,-8.63466 -18.95552,-42.37873 -20.74219,-49.5254 -1.78666,-7.1453 -4.76366,-21.83398 -4.76366,-21.83398 z m 1.38867,21.9336 c 0,0 10.62006,26.49788 12.80273,31.56054 2.184,5.06134 6.15469,11.51278 8.13866,17.46875 1.98534,5.95466 6.0547,17.26758 6.0547,17.26758 0,0 -7.44418,-15.78015 -10.52148,-23.52149 -3.076,-7.7413 -5.35872,-12.10777 -6.74806,-15.48241 -1.38933,-3.37467 -9.13056,-19.55167 -9.72655,-27.29297 z" id="path1" />
</svg>
